<svg width="20" height="20" viewBox="0 0 20 20" fill="none" xmlns="http://www.w3.org/2000/svg">
<path d="M13.7491 0C12.5639 0.141967 11.4773 0.730205 10.7105 1.645C10.048 2.45107 9.50304 3.64857 9.71554 4.8125C10.3115 4.799 10.8967 4.65116 11.4276 4.38C11.9585 4.10884 12.4213 3.72136 12.7816 3.24643C13.1494 2.79606 13.4242 2.27727 13.5903 1.72005C13.7563 1.16282 13.8103 0.578211 13.7491 0Z" fill="#242323"/>
<path d="M17.9627 6.70964C16.9391 5.42607 15.5002 4.68107 14.1413 4.68107C12.3477 4.68107 11.5888 5.53821 10.3427 5.53821C9.057 5.53821 8.08164 4.68107 6.53022 4.68107C5.00664 4.68107 3.38414 5.61214 2.35522 7.20464C0.909144 9.44714 1.15664 13.6632 3.50022 17.2546C4.33879 18.5404 5.45879 19.9846 6.92379 19.9971C8.22736 20.0096 8.59486 19.1611 10.3613 19.1521C12.1277 19.1432 12.4624 20.0093 13.7638 19.9946C15.2299 19.9836 16.4113 18.3821 17.2499 17.0971C17.7565 16.3318 18.1888 15.5197 18.5409 14.6721C15.1502 13.3836 14.6066 8.55964 17.9627 6.70964Z" fill="#242323"/>
</svg>
