<svg width="351" height="433" viewBox="0 0 351 433" fill="none" xmlns="http://www.w3.org/2000/svg">
<g opacity="0.1">
<path d="M321.275 395.259L319.586 391.881C314.236 377.242 321.557 361.195 336.198 355.846C336.48 355.846 336.762 355.565 337.325 355.565L467.691 311.366V191.718C467.691 176.798 458.399 163.566 444.602 158.217C411.377 145.549 351.685 123.027 335.635 117.678C317.615 111.766 319.868 91.2151 321.839 83.0509C307.197 91.4966 297.905 106.699 296.779 123.309V357.254C296.779 367.952 300.721 378.086 308.042 385.969C311.421 390.192 316.207 393.289 321.275 395.259Z" fill="#F8F8F8"/>
<path opacity="0.53" d="M467.399 311.362V397.241C467.399 416.95 451.35 433 431.64 433C427.416 433 423.474 432.155 419.532 430.747L321.265 395.27L319.576 391.891C314.226 377.249 321.547 361.2 336.188 355.85C336.47 355.85 336.751 355.569 337.314 355.569L467.399 311.362Z" fill="#F8F8F8"/>
<path d="M296.211 155.402V351.06C295.93 316.714 296.211 209.454 296.211 155.402Z" fill="#F8F8F8"/>
<path opacity="0.78" d="M583.695 27.5873V252.524C583.695 264.348 576.375 274.764 565.112 278.424L467.408 311.362V191.715C467.408 176.794 458.116 163.563 444.319 158.214C411.094 145.545 351.402 123.023 335.353 117.674C317.332 111.762 319.585 91.2114 321.556 83.0472C322.682 82.4842 323.527 81.9212 324.653 81.3582L547.092 1.68718C561.452 -3.38022 576.938 3.93943 582.006 18.2971C583.132 21.1123 583.695 24.4905 583.695 27.5873Z" fill="#F8F8F8"/>
<path d="M262.706 37.7256L264.396 41.1037C269.745 55.7429 262.425 71.7898 247.783 77.1387C247.502 77.1387 247.22 77.4202 246.657 77.4202L116.291 121.619V241.266C116.291 256.187 125.583 269.418 139.38 274.767C172.886 287.436 232.297 309.958 248.346 315.307C266.367 321.219 264.114 341.77 262.143 349.934C276.785 341.488 286.076 326.568 287.203 309.676V75.4495C287.203 64.7516 282.979 54.6168 275.94 46.7342C272.28 42.7929 267.775 39.4147 262.706 37.7256Z" fill="#F8F8F8"/>
<path opacity="0.53" d="M116.291 121.637V35.7592C116.291 16.0494 132.34 0 152.05 0C156.274 0 160.216 0.844669 164.158 2.25251L262.706 37.7302L264.396 41.1088C269.745 55.7504 262.425 71.7999 247.783 77.1497C247.502 77.1497 247.22 77.4312 246.657 77.4312L116.291 121.637Z" fill="#F8F8F8"/>
<path opacity="0.78" d="M0 405.392V180.456C0 168.632 7.60235 158.216 18.5835 154.556L116.288 121.618V241.265C116.288 256.186 125.579 269.417 139.376 274.766C172.883 287.435 232.294 309.956 248.343 315.305C266.363 321.217 264.111 341.768 262.14 349.933C261.013 350.496 260.169 351.059 259.042 351.622L36.6038 431.292C22.5254 436.36 6.75765 429.04 1.68942 414.964C0.563153 411.868 0 408.771 0 405.392Z" fill="#F8F8F8"/>
</g>
</svg>
