<svg width="350" height="433" viewBox="0 0 350 433" fill="none" xmlns="http://www.w3.org/2000/svg">
<g opacity="0.1">
<path d="M87.2754 395.259L85.586 391.881C80.2362 377.242 87.557 361.195 102.198 355.846C102.48 355.846 102.762 355.565 103.325 355.565L233.691 311.366V191.718C233.691 176.798 224.399 163.566 210.602 158.217C177.377 145.549 117.685 123.027 101.635 117.678C83.6151 111.766 85.8676 91.2151 87.8386 83.0509C73.1971 91.4966 63.9053 106.699 62.779 123.309V357.254C62.779 367.952 66.7209 378.086 74.0417 385.969C77.4205 390.192 82.2072 393.289 87.2754 395.259Z" fill="#F8F8F8"/>
<path opacity="0.53" d="M233.399 311.362V397.241C233.399 416.95 217.35 433 197.64 433C193.416 433 189.474 432.155 185.532 430.747L87.2651 395.27L85.5757 391.891C80.2259 377.249 87.5466 361.2 102.188 355.85C102.47 355.85 102.751 355.569 103.314 355.569L233.399 311.362Z" fill="#F8F8F8"/>
<path d="M62.2111 155.402V351.06C61.9295 316.714 62.2111 209.454 62.2111 155.402Z" fill="#F8F8F8"/>
<path opacity="0.78" d="M349.695 27.5873V252.524C349.695 264.348 342.375 274.764 331.112 278.424L233.408 311.362V191.715C233.408 176.794 224.116 163.563 210.319 158.214C177.094 145.545 117.402 123.023 101.353 117.674C83.3322 111.762 85.5848 91.2114 87.5557 83.0472C88.682 82.4842 89.5267 81.9212 90.653 81.3582L313.092 1.68718C327.452 -3.38022 342.938 3.93943 348.006 18.2971C349.132 21.1123 349.695 24.4905 349.695 27.5873Z" fill="#F8F8F8"/>
<path d="M28.7064 37.7256L30.3957 41.1037C35.7455 55.7429 28.4248 71.7898 13.7832 77.1387C13.5017 77.1387 13.2201 77.4202 12.657 77.4202L-117.709 121.619V241.266C-117.709 256.187 -108.417 269.418 -94.6204 274.767C-61.1138 287.436 -1.70296 309.958 14.3464 315.307C32.3668 321.219 30.1142 341.77 28.1432 349.934C42.7847 341.488 52.0765 326.568 53.2027 309.676V75.4495C53.2027 64.7516 48.9792 54.6168 41.94 46.7342C38.2796 42.7929 33.7746 39.4147 28.7064 37.7256Z" fill="#F8F8F8"/>
<path opacity="0.53" d="M-117.709 121.637V35.7592C-117.709 16.0494 -101.66 0 -81.9499 0C-77.7263 0 -73.7843 0.844669 -69.8424 2.25251L28.7064 37.7302L30.3957 41.1088C35.7455 55.7504 28.4248 71.7999 13.7832 77.1497C13.5017 77.1497 13.2201 77.4312 12.657 77.4312L-117.709 121.637Z" fill="#F8F8F8"/>
<path opacity="0.78" d="M-234 405.392V180.456C-234 168.632 -226.398 158.216 -215.417 154.556L-117.712 121.618V241.265C-117.712 256.186 -108.421 269.417 -94.6239 274.766C-61.1173 287.435 -1.70648 309.956 14.3429 315.305C32.3632 321.217 30.1107 341.768 28.1397 349.933C27.0134 350.496 26.1687 351.059 25.0424 351.622L-197.396 431.292C-211.475 436.36 -227.242 429.04 -232.311 414.964C-233.437 411.868 -234 408.771 -234 405.392Z" fill="#F8F8F8"/>
</g>
</svg>
