<svg width="737" height="528" viewBox="0 0 737 528" fill="none" xmlns="http://www.w3.org/2000/svg">
<path d="M405.206 498.458L403.076 494.197C396.328 475.734 405.561 455.495 424.028 448.749C424.383 448.749 424.738 448.394 425.449 448.394L589.872 392.648V241.744C589.872 222.925 578.152 206.237 560.751 199.491C518.846 183.513 443.56 155.107 423.318 148.361C400.59 140.905 403.431 114.985 405.917 104.688C387.45 115.34 375.731 134.513 374.31 155.462V450.524C374.31 464.017 379.282 476.799 388.515 486.741C392.777 492.067 398.814 495.973 405.206 498.458Z" fill="#AFE274"/>
<path opacity="0.53" d="M589.503 392.645V500.958C589.503 525.817 569.261 546.059 544.402 546.059C539.075 546.059 534.104 544.993 529.132 543.218L405.193 498.472L403.062 494.21C396.315 475.744 405.548 455.502 424.015 448.755C424.37 448.755 424.725 448.399 425.435 448.399L589.503 392.645Z" fill="#AFE274"/>
<path d="M373.592 195.941V442.714C373.237 399.395 373.592 264.114 373.592 195.941Z" fill="#AFE274"/>
<path opacity="0.78" d="M736.181 34.737V318.437C736.181 333.349 726.948 346.487 712.742 351.103L589.514 392.646V241.742C589.514 222.923 577.795 206.235 560.394 199.489C518.489 183.511 443.202 155.105 422.96 148.359C400.232 140.902 403.073 114.982 405.559 104.685C406.98 103.975 408.045 103.265 409.465 102.555L690.015 2.07072C708.126 -4.3205 727.658 4.91135 734.05 23.0198C735.471 26.5705 736.181 30.8313 736.181 34.737Z" fill="#AFE274"/>
<path d="M331.338 47.5225L333.468 51.7831C340.216 70.2466 330.982 90.4857 312.516 97.232C312.161 97.232 311.806 97.587 311.095 97.587L146.672 153.333V304.237C146.672 323.055 158.391 339.743 175.793 346.49C218.053 362.468 292.984 390.873 313.226 397.62C335.954 405.076 333.113 430.996 330.627 441.293C349.094 430.641 360.813 411.822 362.234 390.518V95.1015C362.234 81.6089 356.907 68.8264 348.028 58.8845C343.412 53.9135 337.73 49.6529 331.338 47.5225Z" fill="#AFE274"/>
<path opacity="0.53" d="M146.673 153.356V45.0424C146.673 20.1836 166.915 -0.0585938 191.773 -0.0585938C197.1 -0.0585938 202.072 1.00674 207.044 2.78237L331.338 47.5283L333.468 51.7896C340.216 70.2562 330.983 90.4985 312.516 97.2459C312.161 97.2459 311.806 97.6009 311.096 97.6009L146.673 153.356Z" fill="#AFE274"/>
<path opacity="0.78" d="M0 511.239V227.539C0 212.626 9.58841 199.489 23.4383 194.873L146.667 153.33V304.234C146.667 323.053 158.386 339.741 175.787 346.487C218.047 362.465 292.979 390.871 313.221 397.617C335.949 405.073 333.108 430.993 330.622 441.29C329.201 442 328.136 442.711 326.715 443.421L46.1663 543.905C28.41 550.296 8.52303 541.065 2.13077 523.311C0.710273 519.405 0 515.5 0 511.239Z" fill="#AFE274"/>
</svg>
