<svg width="22" height="23" viewBox="0 0 22 23" fill="none" xmlns="http://www.w3.org/2000/svg">
<path d="M0.25 11.1714C0.25 5.23433 5.06294 0.421387 11 0.421387C16.9371 0.421387 21.75 5.23433 21.75 11.1714C21.75 17.1084 16.9371 21.9214 11 21.9214C5.06294 21.9214 0.25 17.1084 0.25 11.1714Z" stroke="#474646" stroke-width="0.5"/>
<path d="M13.0833 15.0257H8.91665C7.39581 15.0257 6.52081 14.1507 6.52081 12.6299V9.71322C6.52081 8.19238 7.39581 7.31738 8.91665 7.31738H13.0833C14.6041 7.31738 15.4791 8.19238 15.4791 9.71322V12.6299C15.4791 14.1507 14.6041 15.0257 13.0833 15.0257ZM8.91665 7.94238C7.72498 7.94238 7.14581 8.52155 7.14581 9.71322V12.6299C7.14581 13.8215 7.72498 14.4007 8.91665 14.4007H13.0833C14.275 14.4007 14.8541 13.8215 14.8541 12.6299V9.71322C14.8541 8.52155 14.275 7.94238 13.0833 7.94238H8.91665Z" fill="#474646"/>
<path d="M10.9999 11.5339C10.6499 11.5339 10.2958 11.4255 10.0249 11.2047L8.72076 10.163C8.58743 10.0547 8.56243 9.85887 8.67076 9.72554C8.7791 9.59221 8.97493 9.56721 9.10826 9.67554L10.4124 10.7172C10.7291 10.9714 11.2666 10.9714 11.5833 10.7172L12.8874 9.67554C13.0208 9.56721 13.2208 9.58804 13.3249 9.72554C13.4333 9.85887 13.4124 10.0589 13.2749 10.163L11.9708 11.2047C11.7041 11.4255 11.3499 11.5339 10.9999 11.5339Z" fill="#474646"/>
</svg>
