<svg width="166" height="38" viewBox="0 0 166 38" fill="none" xmlns="http://www.w3.org/2000/svg">
<g filter="url(#filter0_d_1_1193)">
<rect x="7.5" y="6" width="149" height="22" rx="11" fill="#E9F8D8" shape-rendering="crispEdges"/>
<rect x="7.75" y="6.25" width="148.5" height="21.5" rx="10.75" stroke="#A0C07B" stroke-width="0.5" shape-rendering="crispEdges"/>
<path d="M18.789 17.6316L22.2782 12.1486C22.5467 11.7266 23.2 11.9168 23.2 12.417V16.2C23.2 16.2552 23.2448 16.3 23.3 16.3H25.7397C26.1442 16.3 26.3812 16.7554 26.1493 17.0867L22.7096 22.0006C22.4293 22.401 21.8 22.2027 21.8 21.7138V18.5C21.8 18.4448 21.7552 18.4 21.7 18.4H19.2108C18.8163 18.4 18.5772 17.9644 18.789 17.6316Z" stroke="#3B3A3A"/>
<path d="M36.62 18.52C36.7933 18.78 37.0133 18.9733 37.28 19.1C37.5533 19.22 37.8333 19.28 38.12 19.28C38.28 19.28 38.4433 19.2567 38.61 19.21C38.7767 19.1567 38.9267 19.08 39.06 18.98C39.2 18.88 39.3133 18.7567 39.4 18.61C39.4867 18.4633 39.53 18.2933 39.53 18.1C39.53 17.8267 39.4433 17.62 39.27 17.48C39.0967 17.3333 38.88 17.2133 38.62 17.12C38.3667 17.02 38.0867 16.9267 37.78 16.84C37.48 16.7467 37.2 16.62 36.94 16.46C36.6867 16.3 36.4733 16.0867 36.3 15.82C36.1267 15.5467 36.04 15.18 36.04 14.72C36.04 14.5133 36.0833 14.2933 36.17 14.06C36.2633 13.8267 36.4067 13.6133 36.6 13.42C36.7933 13.2267 37.04 13.0667 37.34 12.94C37.6467 12.8067 38.0133 12.74 38.44 12.74C38.8267 12.74 39.1967 12.7933 39.55 12.9C39.9033 13.0067 40.2133 13.2233 40.48 13.55L39.7 14.26C39.58 14.0733 39.41 13.9233 39.19 13.81C38.97 13.6967 38.72 13.64 38.44 13.64C38.1733 13.64 37.95 13.6767 37.77 13.75C37.5967 13.8167 37.4567 13.9067 37.35 14.02C37.2433 14.1267 37.1667 14.2433 37.12 14.37C37.08 14.4967 37.06 14.6133 37.06 14.72C37.06 15.02 37.1467 15.25 37.32 15.41C37.4933 15.57 37.7067 15.7 37.96 15.8C38.22 15.9 38.5 15.99 38.8 16.07C39.1067 16.15 39.3867 16.2633 39.64 16.41C39.9 16.55 40.1167 16.7433 40.29 16.99C40.4633 17.23 40.55 17.5633 40.55 17.99C40.55 18.33 40.4833 18.6367 40.35 18.91C40.2233 19.1833 40.05 19.4133 39.83 19.6C39.61 19.7867 39.35 19.93 39.05 20.03C38.75 20.13 38.43 20.18 38.09 20.18C37.6367 20.18 37.2067 20.1 36.8 19.94C36.3933 19.78 36.07 19.5333 35.83 19.2L36.62 18.52ZM41.9666 12.92H46.5366V13.82H42.9266V15.93H46.2866V16.83H42.9266V19.1H46.7166V20H41.9666V12.92ZM53.0099 14.45C52.8099 14.19 52.5566 13.99 52.2499 13.85C51.9433 13.71 51.6266 13.64 51.2999 13.64C50.8999 13.64 50.5366 13.7167 50.2099 13.87C49.8899 14.0167 49.6133 14.22 49.3799 14.48C49.1533 14.74 48.9766 15.0467 48.8499 15.4C48.7233 15.7467 48.6599 16.12 48.6599 16.52C48.6599 16.8933 48.7199 17.2467 48.8399 17.58C48.9599 17.9133 49.1333 18.2067 49.3599 18.46C49.5866 18.7133 49.8633 18.9133 50.1899 19.06C50.5166 19.2067 50.8866 19.28 51.2999 19.28C51.7066 19.28 52.0633 19.1967 52.3699 19.03C52.6766 18.8633 52.9366 18.63 53.1499 18.33L53.9599 18.94C53.9066 19.0133 53.8133 19.12 53.6799 19.26C53.5466 19.3933 53.3699 19.53 53.1499 19.67C52.9299 19.8033 52.6633 19.92 52.3499 20.02C52.0433 20.1267 51.6866 20.18 51.2799 20.18C50.7199 20.18 50.2133 20.0733 49.7599 19.86C49.3133 19.6467 48.9299 19.3667 48.6099 19.02C48.2966 18.6733 48.0566 18.2833 47.8899 17.85C47.7233 17.41 47.6399 16.9667 47.6399 16.52C47.6399 15.9733 47.7299 15.47 47.9099 15.01C48.0899 14.5433 48.3399 14.1433 48.6599 13.81C48.9866 13.47 49.3766 13.2067 49.8299 13.02C50.2833 12.8333 50.7833 12.74 51.3299 12.74C51.7966 12.74 52.2533 12.83 52.6999 13.01C53.1533 13.19 53.5233 13.4667 53.8099 13.84L53.0099 14.45ZM55.9509 12.92V17.26C55.9509 17.48 55.9809 17.71 56.0409 17.95C56.1009 18.1833 56.2009 18.4 56.3409 18.6C56.4809 18.8 56.6643 18.9633 56.8909 19.09C57.1176 19.2167 57.3976 19.28 57.7309 19.28C58.0643 19.28 58.3443 19.2167 58.5709 19.09C58.7976 18.9633 58.9809 18.8 59.1209 18.6C59.2609 18.4 59.3609 18.1833 59.4209 17.95C59.4809 17.71 59.5109 17.48 59.5109 17.26V12.92H60.4709V17.41C60.4709 17.8233 60.4009 18.2 60.2609 18.54C60.1209 18.8733 59.9276 19.1633 59.6809 19.41C59.4343 19.6567 59.1443 19.8467 58.8109 19.98C58.4776 20.1133 58.1176 20.18 57.7309 20.18C57.3443 20.18 56.9843 20.1133 56.6509 19.98C56.3176 19.8467 56.0276 19.6567 55.7809 19.41C55.5343 19.1633 55.3409 18.8733 55.2009 18.54C55.0609 18.2 54.9909 17.8233 54.9909 17.41V12.92H55.9509ZM62.162 12.92H64.652C65.1053 12.92 65.4786 12.9833 65.772 13.11C66.0653 13.23 66.2953 13.3867 66.462 13.58C66.6353 13.7667 66.7553 13.98 66.822 14.22C66.8886 14.4533 66.922 14.68 66.922 14.9C66.922 15.1267 66.882 15.3467 66.802 15.56C66.722 15.7667 66.6053 15.9567 66.452 16.13C66.3053 16.2967 66.122 16.44 65.902 16.56C65.6886 16.6733 65.4486 16.7433 65.182 16.77L67.192 20H65.992L64.192 16.88H63.122V20H62.162V12.92ZM63.122 16.04H64.382C64.5686 16.04 64.752 16.0267 64.932 16C65.1186 15.9667 65.282 15.91 65.422 15.83C65.5686 15.75 65.6853 15.6367 65.772 15.49C65.8586 15.3367 65.902 15.14 65.902 14.9C65.902 14.66 65.8586 14.4667 65.772 14.32C65.6853 14.1667 65.5686 14.05 65.422 13.97C65.282 13.89 65.1186 13.8367 64.932 13.81C64.752 13.7767 64.5686 13.76 64.382 13.76H63.122V16.04ZM68.2752 12.92H72.8452V13.82H69.2352V15.93H72.5952V16.83H69.2352V19.1H73.0252V20H68.2752V12.92ZM74.8685 20.06C74.6885 20.06 74.5318 19.9967 74.3985 19.87C74.2718 19.7367 74.2085 19.58 74.2085 19.4C74.2085 19.22 74.2718 19.0667 74.3985 18.94C74.5318 18.8067 74.6885 18.74 74.8685 18.74C75.0485 18.74 75.2018 18.8067 75.3285 18.94C75.4618 19.0667 75.5285 19.22 75.5285 19.4C75.5285 19.58 75.4618 19.7367 75.3285 19.87C75.2018 19.9967 75.0485 20.06 74.8685 20.06ZM85.9849 16.04V19.53C85.8116 19.6367 85.6149 19.73 85.3949 19.81C85.1749 19.89 84.9449 19.9567 84.7049 20.01C84.4716 20.07 84.2316 20.1133 83.9849 20.14C83.7449 20.1667 83.5183 20.18 83.3049 20.18C82.7049 20.18 82.1683 20.08 81.6949 19.88C81.2283 19.68 80.8316 19.41 80.5049 19.07C80.1849 18.73 79.9383 18.3367 79.7649 17.89C79.5983 17.4367 79.5149 16.96 79.5149 16.46C79.5149 15.9333 79.6049 15.4433 79.7849 14.99C79.9716 14.5367 80.2249 14.1433 80.5449 13.81C80.8716 13.4767 81.2616 13.2167 81.7149 13.03C82.1683 12.8367 82.6649 12.74 83.2049 12.74C83.8583 12.74 84.3916 12.8233 84.8049 12.99C85.2183 13.15 85.5649 13.3733 85.8449 13.66L85.1649 14.39C84.8716 14.11 84.5616 13.9167 84.2349 13.81C83.9083 13.6967 83.5649 13.64 83.2049 13.64C82.7983 13.64 82.4316 13.7167 82.1049 13.87C81.7783 14.0167 81.4983 14.2167 81.2649 14.47C81.0316 14.7233 80.8516 15.0233 80.7249 15.37C80.5983 15.71 80.5349 16.0733 80.5349 16.46C80.5349 16.86 80.6049 17.2333 80.7449 17.58C80.8849 17.92 81.0783 18.2167 81.3249 18.47C81.5716 18.7233 81.8616 18.9233 82.1949 19.07C82.5283 19.21 82.8916 19.28 83.2849 19.28C83.6249 19.28 83.9449 19.25 84.2449 19.19C84.5516 19.1233 84.8116 19.03 85.0249 18.91V16.94H83.4549V16.04H85.9849ZM87.7381 12.92H88.6981V19.1H91.9481V20H87.7381V12.92ZM96.1737 20.18C95.6337 20.18 95.137 20.0867 94.6837 19.9C94.2303 19.7067 93.8403 19.4433 93.5137 19.11C93.1937 18.7767 92.9403 18.3833 92.7537 17.93C92.5737 17.4767 92.4837 16.9867 92.4837 16.46C92.4837 15.9333 92.5737 15.4433 92.7537 14.99C92.9403 14.5367 93.1937 14.1433 93.5137 13.81C93.8403 13.4767 94.2303 13.2167 94.6837 13.03C95.137 12.8367 95.6337 12.74 96.1737 12.74C96.7137 12.74 97.2103 12.8367 97.6637 13.03C98.117 13.2167 98.5037 13.4767 98.8237 13.81C99.1503 14.1433 99.4037 14.5367 99.5837 14.99C99.7703 15.4433 99.8637 15.9333 99.8637 16.46C99.8637 16.9867 99.7703 17.4767 99.5837 17.93C99.4037 18.3833 99.1503 18.7767 98.8237 19.11C98.5037 19.4433 98.117 19.7067 97.6637 19.9C97.2103 20.0867 96.7137 20.18 96.1737 20.18ZM96.1737 19.28C96.5803 19.28 96.947 19.2067 97.2737 19.06C97.6003 18.9067 97.8803 18.7033 98.1137 18.45C98.347 18.1967 98.527 17.9 98.6537 17.56C98.7803 17.2133 98.8437 16.8467 98.8437 16.46C98.8437 16.0733 98.7803 15.71 98.6537 15.37C98.527 15.0233 98.347 14.7233 98.1137 14.47C97.8803 14.2167 97.6003 14.0167 97.2737 13.87C96.947 13.7167 96.5803 13.64 96.1737 13.64C95.767 13.64 95.4003 13.7167 95.0737 13.87C94.747 14.0167 94.467 14.2167 94.2337 14.47C94.0003 14.7233 93.8203 15.0233 93.6937 15.37C93.567 15.71 93.5037 16.0733 93.5037 16.46C93.5037 16.8467 93.567 17.2133 93.6937 17.56C93.8203 17.9 94.0003 18.1967 94.2337 18.45C94.467 18.7033 94.747 18.9067 95.0737 19.06C95.4003 19.2067 95.767 19.28 96.1737 19.28ZM101.244 12.92H103.704C104.011 12.92 104.294 12.9567 104.554 13.03C104.821 13.1033 105.047 13.2133 105.234 13.36C105.427 13.5 105.577 13.6833 105.684 13.91C105.797 14.13 105.854 14.39 105.854 14.69C105.854 15.0967 105.741 15.43 105.514 15.69C105.287 15.9433 104.994 16.13 104.634 16.25V16.27C104.847 16.2833 105.047 16.34 105.234 16.44C105.421 16.5333 105.581 16.66 105.714 16.82C105.854 16.9733 105.964 17.1533 106.044 17.36C106.124 17.5667 106.164 17.79 106.164 18.03C106.164 18.35 106.097 18.6333 105.964 18.88C105.837 19.12 105.661 19.3233 105.434 19.49C105.207 19.6567 104.944 19.7833 104.644 19.87C104.344 19.9567 104.021 20 103.674 20H101.244V12.92ZM102.204 15.86H103.514C103.694 15.86 103.864 15.8433 104.024 15.81C104.184 15.77 104.324 15.7067 104.444 15.62C104.564 15.5333 104.657 15.4233 104.724 15.29C104.797 15.1567 104.834 14.9933 104.834 14.8C104.834 14.52 104.744 14.2767 104.564 14.07C104.384 13.8633 104.101 13.76 103.714 13.76H102.204V15.86ZM102.204 19.16H103.614C103.761 19.16 103.921 19.1467 104.094 19.12C104.274 19.0867 104.441 19.0267 104.594 18.94C104.747 18.8467 104.877 18.7233 104.984 18.57C105.091 18.4167 105.144 18.2133 105.144 17.96C105.144 17.54 105.007 17.2267 104.734 17.02C104.461 16.8067 104.091 16.7 103.624 16.7H102.204V19.16ZM109.763 12.92H110.633L113.663 20H112.543L111.833 18.25H108.463L107.763 20H106.643L109.763 12.92ZM111.483 17.41L110.163 14.16H110.143L108.803 17.41H111.483ZM114.584 12.92H115.544V19.1H118.794V20H114.584V12.92ZM120.249 20.06C120.069 20.06 119.913 19.9967 119.779 19.87C119.653 19.7367 119.589 19.58 119.589 19.4C119.589 19.22 119.653 19.0667 119.779 18.94C119.913 18.8067 120.069 18.74 120.249 18.74C120.429 18.74 120.583 18.8067 120.709 18.94C120.843 19.0667 120.909 19.22 120.909 19.4C120.909 19.58 120.843 19.7367 120.709 19.87C120.583 19.9967 120.429 20.06 120.249 20.06ZM125.336 12.92H129.786V13.82H126.296V16.04H129.546V16.94H126.296V20H125.336V12.92ZM132.751 12.92H133.621L136.651 20H135.531L134.821 18.25H131.451L130.751 20H129.631L132.751 12.92ZM134.471 17.41L133.151 14.16H133.131L131.791 17.41H134.471ZM137.782 18.52C137.955 18.78 138.175 18.9733 138.442 19.1C138.715 19.22 138.995 19.28 139.282 19.28C139.442 19.28 139.605 19.2567 139.772 19.21C139.939 19.1567 140.089 19.08 140.222 18.98C140.362 18.88 140.475 18.7567 140.562 18.61C140.649 18.4633 140.692 18.2933 140.692 18.1C140.692 17.8267 140.605 17.62 140.432 17.48C140.259 17.3333 140.042 17.2133 139.782 17.12C139.529 17.02 139.249 16.9267 138.942 16.84C138.642 16.7467 138.362 16.62 138.102 16.46C137.849 16.3 137.635 16.0867 137.462 15.82C137.289 15.5467 137.202 15.18 137.202 14.72C137.202 14.5133 137.245 14.2933 137.332 14.06C137.425 13.8267 137.569 13.6133 137.762 13.42C137.955 13.2267 138.202 13.0667 138.502 12.94C138.809 12.8067 139.175 12.74 139.602 12.74C139.989 12.74 140.359 12.7933 140.712 12.9C141.065 13.0067 141.375 13.2233 141.642 13.55L140.862 14.26C140.742 14.0733 140.572 13.9233 140.352 13.81C140.132 13.6967 139.882 13.64 139.602 13.64C139.335 13.64 139.112 13.6767 138.932 13.75C138.759 13.8167 138.619 13.9067 138.512 14.02C138.405 14.1267 138.329 14.2433 138.282 14.37C138.242 14.4967 138.222 14.6133 138.222 14.72C138.222 15.02 138.309 15.25 138.482 15.41C138.655 15.57 138.869 15.7 139.122 15.8C139.382 15.9 139.662 15.99 139.962 16.07C140.269 16.15 140.549 16.2633 140.802 16.41C141.062 16.55 141.279 16.7433 141.452 16.99C141.625 17.23 141.712 17.5633 141.712 17.99C141.712 18.33 141.645 18.6367 141.512 18.91C141.385 19.1833 141.212 19.4133 140.992 19.6C140.772 19.7867 140.512 19.93 140.212 20.03C139.912 20.13 139.592 20.18 139.252 20.18C138.799 20.18 138.369 20.1 137.962 19.94C137.555 19.78 137.232 19.5333 136.992 19.2L137.782 18.52ZM144.609 13.82H142.329V12.92H147.849V13.82H145.569V20H144.609V13.82Z" fill="#3B3A3A"/>
</g>
<defs>
<filter id="filter0_d_1_1193" x="0.5" y="0" width="165" height="38" filterUnits="userSpaceOnUse" color-interpolation-filters="sRGB">
<feFlood flood-opacity="0" result="BackgroundImageFix"/>
<feColorMatrix in="SourceAlpha" type="matrix" values="0 0 0 0 0 0 0 0 0 0 0 0 0 0 0 0 0 0 127 0" result="hardAlpha"/>
<feOffset dx="1" dy="2"/>
<feGaussianBlur stdDeviation="4"/>
<feComposite in2="hardAlpha" operator="out"/>
<feColorMatrix type="matrix" values="0 0 0 0 0.285763 0 0 0 0 0.339133 0 0 0 0 0.278714 0 0 0 0.08 0"/>
<feBlend mode="normal" in2="BackgroundImageFix" result="effect1_dropShadow_1_1193"/>
<feBlend mode="normal" in="SourceGraphic" in2="effect1_dropShadow_1_1193" result="shape"/>
</filter>
</defs>
</svg>
