<svg width="109" height="30" viewBox="0 0 109 30" fill="none" xmlns="http://www.w3.org/2000/svg">
<g filter="url(#filter0_ii_3940_11026)">
<rect width="109" height="30" rx="15" fill="#AFE274" fill-opacity="0.2"/>
<path d="M19.289 15.6315L22.7782 10.1485C23.0467 9.72652 23.7 9.91675 23.7 10.417V14.2C23.7 14.2552 23.7448 14.3 23.8 14.3H26.2397C26.6442 14.3 26.8812 14.7553 26.6493 15.0867L23.2096 20.0005C22.9293 20.401 22.3 20.2026 22.3 19.7138V16.5C22.3 16.4447 22.2552 16.4 22.2 16.4H19.7108C19.3163 16.4 19.0772 15.9644 19.289 15.6315Z" stroke="#3B3A3A"/>
<path d="M41.68 18H40.96V10.92H45.23V11.58H41.68V13.99H44.98V14.65H41.68V18ZM47.2366 17.34H51.0266V18H46.5166V10.92H50.9066V11.58H47.2366V13.99H50.6666V14.65H47.2366V17.34ZM54.7144 18H53.9944V11.58H51.6244V10.92H57.0844V11.58H54.7144V18ZM58.433 15.48H61.503L59.973 11.76L58.433 15.48ZM57.383 18H56.543L59.623 10.92H60.323L63.403 18H62.563L61.783 16.14H58.163L57.383 18ZM65.9448 18H65.2248V11.58H62.8548V10.92H68.3148V11.58H65.9448V18ZM74.477 15.36C74.477 15.6533 74.4404 15.9667 74.367 16.3C74.3004 16.6267 74.1704 16.93 73.977 17.21C73.7837 17.49 73.517 17.7233 73.177 17.91C72.8437 18.09 72.4137 18.18 71.887 18.18C71.3537 18.18 70.9204 18.09 70.587 17.91C70.2537 17.7233 69.9904 17.49 69.797 17.21C69.6037 16.93 69.4704 16.6267 69.397 16.3C69.3304 15.9667 69.297 15.6533 69.297 15.36V10.92H70.017V15.28C70.017 15.62 70.0504 15.9133 70.117 16.16C70.1837 16.4 70.2704 16.6033 70.377 16.77C70.4904 16.9367 70.6137 17.07 70.747 17.17C70.887 17.2633 71.0237 17.3367 71.157 17.39C71.297 17.4433 71.4304 17.48 71.557 17.5C71.6837 17.5133 71.7937 17.52 71.887 17.52C71.9737 17.52 72.0804 17.5133 72.207 17.5C72.3404 17.48 72.4737 17.4433 72.607 17.39C72.747 17.3367 72.8837 17.2633 73.017 17.17C73.157 17.07 73.2804 16.9367 73.387 16.77C73.5004 16.6033 73.5904 16.4 73.657 16.16C73.7237 15.9133 73.757 15.62 73.757 15.28V10.92H74.477V15.36ZM76.9925 14.05H78.2725C78.5925 14.05 78.8625 14.0167 79.0825 13.95C79.3092 13.8833 79.4892 13.7967 79.6225 13.69C79.7558 13.5767 79.8525 13.4467 79.9125 13.3C79.9725 13.1467 80.0025 12.9833 80.0025 12.81C80.0025 12.6433 79.9725 12.4867 79.9125 12.34C79.8525 12.1867 79.7558 12.0533 79.6225 11.94C79.4892 11.8267 79.3092 11.74 79.0825 11.68C78.8625 11.6133 78.5925 11.58 78.2725 11.58H76.9925V14.05ZM76.9925 18H76.2725V10.92H78.4525C79.1725 10.92 79.7392 11.0767 80.1525 11.39C80.5725 11.7033 80.7825 12.1767 80.7825 12.81C80.7825 13.3033 80.6258 13.72 80.3125 14.06C80.0058 14.3933 79.5592 14.5867 78.9725 14.64L81.0125 18H80.1325L78.1925 14.71H76.9925V18ZM82.9202 17.34H86.7102V18H82.2002V10.92H86.5902V11.58H82.9202V13.99H86.3502V14.65H82.9202V17.34ZM91.478 12.09C91.1646 11.63 90.708 11.4 90.108 11.4C89.9213 11.4 89.738 11.4267 89.558 11.48C89.378 11.5267 89.2146 11.6033 89.068 11.71C88.928 11.81 88.8146 11.9433 88.728 12.11C88.6413 12.27 88.598 12.46 88.598 12.68C88.598 13 88.688 13.25 88.868 13.43C89.048 13.6033 89.2713 13.7467 89.538 13.86C89.8046 13.9733 90.0946 14.0767 90.408 14.17C90.728 14.2567 91.0213 14.3767 91.288 14.53C91.5546 14.6767 91.778 14.8733 91.958 15.12C92.138 15.3667 92.228 15.7033 92.228 16.13C92.228 16.45 92.158 16.74 92.018 17C91.8846 17.2533 91.7046 17.4667 91.478 17.64C91.258 17.8133 91.008 17.9467 90.728 18.04C90.4546 18.1333 90.178 18.18 89.898 18.18C89.4646 18.18 89.0513 18.1 88.658 17.94C88.2713 17.7733 87.9413 17.5033 87.668 17.13L88.318 16.66C88.4713 16.92 88.6846 17.13 88.958 17.29C89.2313 17.4433 89.5546 17.52 89.928 17.52C90.108 17.52 90.288 17.4933 90.468 17.44C90.648 17.38 90.808 17.2967 90.948 17.19C91.0946 17.0767 91.2146 16.94 91.308 16.78C91.4013 16.62 91.448 16.4367 91.448 16.23C91.448 15.9833 91.3946 15.78 91.288 15.62C91.188 15.4533 91.0513 15.3167 90.878 15.21C90.7113 15.0967 90.518 15.0033 90.298 14.93C90.0846 14.8567 89.8613 14.7833 89.628 14.71C89.4013 14.6367 89.178 14.5533 88.958 14.46C88.7446 14.3667 88.5513 14.25 88.378 14.11C88.2113 13.9633 88.0746 13.7833 87.968 13.57C87.868 13.35 87.818 13.0767 87.818 12.75C87.818 12.41 87.8813 12.1133 88.008 11.86C88.1413 11.6067 88.3146 11.3967 88.528 11.23C88.748 11.0633 88.9946 10.94 89.268 10.86C89.5413 10.78 89.8213 10.74 90.108 10.74C90.508 10.74 90.8713 10.8033 91.198 10.93C91.5246 11.0567 91.828 11.28 92.108 11.6L91.478 12.09Z" fill="#2F2F2F"/>
</g>
<defs>
<filter id="filter0_ii_3940_11026" x="0" y="-4" width="109" height="37" filterUnits="userSpaceOnUse" color-interpolation-filters="sRGB">
<feFlood flood-opacity="0" result="BackgroundImageFix"/>
<feBlend mode="normal" in="SourceGraphic" in2="BackgroundImageFix" result="shape"/>
<feColorMatrix in="SourceAlpha" type="matrix" values="0 0 0 0 0 0 0 0 0 0 0 0 0 0 0 0 0 0 127 0" result="hardAlpha"/>
<feOffset dy="-4"/>
<feGaussianBlur stdDeviation="2"/>
<feComposite in2="hardAlpha" operator="arithmetic" k2="-1" k3="1"/>
<feColorMatrix type="matrix" values="0 0 0 0 0.930339 0 0 0 0 0.97113 0 0 0 0 0.763097 0 0 0 0.1 0"/>
<feBlend mode="normal" in2="shape" result="effect1_innerShadow_3940_11026"/>
<feColorMatrix in="SourceAlpha" type="matrix" values="0 0 0 0 0 0 0 0 0 0 0 0 0 0 0 0 0 0 127 0" result="hardAlpha"/>
<feOffset dy="3"/>
<feGaussianBlur stdDeviation="2"/>
<feComposite in2="hardAlpha" operator="arithmetic" k2="-1" k3="1"/>
<feColorMatrix type="matrix" values="0 0 0 0 0.490811 0 0 0 0 0.536249 0 0 0 0 0.304512 0 0 0 0.04 0"/>
<feBlend mode="normal" in2="effect1_innerShadow_3940_11026" result="effect2_innerShadow_3940_11026"/>
</filter>
</defs>
</svg>
