<svg width="132" height="30" viewBox="0 0 132 30" fill="none" xmlns="http://www.w3.org/2000/svg">
<g filter="url(#filter0_ii_3940_11093)">
<rect x="0.5" width="131" height="30" rx="15" fill="#AFE274" fill-opacity="0.2"/>
<path d="M19.789 15.6315L23.2782 10.1485C23.5467 9.72652 24.2 9.91675 24.2 10.417V14.2C24.2 14.2552 24.2448 14.3 24.3 14.3H26.7397C27.1442 14.3 27.3813 14.7553 27.1493 15.0867L23.7096 20.0005C23.4293 20.401 22.8 20.2026 22.8 19.7138V16.5C22.8 16.4447 22.7552 16.4 22.7 16.4H20.2108C19.8163 16.4 19.5772 15.9644 19.789 15.6315Z" stroke="#3B3A3A"/>
<path d="M41.46 10.92H42.18V13.99H46.04V10.92H46.76V18H46.04V14.65H42.18V18H41.46V10.92ZM54.7968 14.46C54.7968 14.0533 54.7301 13.6667 54.5968 13.3C54.4635 12.9267 54.2701 12.6 54.0168 12.32C53.7701 12.04 53.4668 11.8167 53.1068 11.65C52.7468 11.4833 52.3401 11.4 51.8868 11.4C51.4335 11.4 51.0268 11.4833 50.6668 11.65C50.3068 11.8167 50.0001 12.04 49.7468 12.32C49.5001 12.6 49.3101 12.9267 49.1768 13.3C49.0435 13.6667 48.9768 14.0533 48.9768 14.46C48.9768 14.8667 49.0435 15.2567 49.1768 15.63C49.3101 15.9967 49.5001 16.32 49.7468 16.6C50.0001 16.88 50.3068 17.1033 50.6668 17.27C51.0268 17.4367 51.4335 17.52 51.8868 17.52C52.3401 17.52 52.7468 17.4367 53.1068 17.27C53.4668 17.1033 53.7701 16.88 54.0168 16.6C54.2701 16.32 54.4635 15.9967 54.5968 15.63C54.7301 15.2567 54.7968 14.8667 54.7968 14.46ZM55.5768 14.46C55.5768 15 55.4835 15.4967 55.2968 15.95C55.1101 16.4033 54.8501 16.7967 54.5168 17.13C54.1901 17.4567 53.8001 17.7133 53.3468 17.9C52.9001 18.0867 52.4135 18.18 51.8868 18.18C51.3601 18.18 50.8701 18.0867 50.4168 17.9C49.9701 17.7133 49.5801 17.4567 49.2468 17.13C48.9201 16.7967 48.6635 16.4033 48.4768 15.95C48.2901 15.4967 48.1968 15 48.1968 14.46C48.1968 13.92 48.2901 13.4233 48.4768 12.97C48.6635 12.5167 48.9201 12.1267 49.2468 11.8C49.5801 11.4667 49.9701 11.2067 50.4168 11.02C50.8701 10.8333 51.3601 10.74 51.8868 10.74C52.4135 10.74 52.9001 10.8333 53.3468 11.02C53.8001 11.2067 54.1901 11.4667 54.5168 11.8C54.8501 12.1267 55.1101 12.5167 55.2968 12.97C55.4835 13.4233 55.5768 13.92 55.5768 14.46ZM58.5566 16.98H58.5766L60.3566 10.92H61.2166L62.9966 16.98H63.0166L64.6966 10.92H65.4966L63.4066 18H62.5666L60.7866 11.94H60.7666L58.9866 18H58.1466L56.0566 10.92H56.8566L58.5566 16.98ZM69.9632 18H69.2432V10.92H69.9632V18ZM74.1499 18H73.4299V11.58H71.0599V10.92H76.5199V11.58H74.1499V18ZM81.9453 16.98H81.9653L83.7453 10.92H84.6053L86.3853 16.98H86.4053L88.0853 10.92H88.8853L86.7953 18H85.9553L84.1753 11.94H84.1553L82.3753 18H81.5353L79.4453 10.92H80.2453L81.9453 16.98ZM95.9687 14.46C95.9687 14.0533 95.902 13.6667 95.7687 13.3C95.6353 12.9267 95.442 12.6 95.1887 12.32C94.942 12.04 94.6387 11.8167 94.2787 11.65C93.9187 11.4833 93.512 11.4 93.0587 11.4C92.6053 11.4 92.1987 11.4833 91.8387 11.65C91.4787 11.8167 91.172 12.04 90.9187 12.32C90.672 12.6 90.482 12.9267 90.3487 13.3C90.2153 13.6667 90.1487 14.0533 90.1487 14.46C90.1487 14.8667 90.2153 15.2567 90.3487 15.63C90.482 15.9967 90.672 16.32 90.9187 16.6C91.172 16.88 91.4787 17.1033 91.8387 17.27C92.1987 17.4367 92.6053 17.52 93.0587 17.52C93.512 17.52 93.9187 17.4367 94.2787 17.27C94.6387 17.1033 94.942 16.88 95.1887 16.6C95.442 16.32 95.6353 15.9967 95.7687 15.63C95.902 15.2567 95.9687 14.8667 95.9687 14.46ZM96.7487 14.46C96.7487 15 96.6553 15.4967 96.4687 15.95C96.282 16.4033 96.022 16.7967 95.6887 17.13C95.362 17.4567 94.972 17.7133 94.5187 17.9C94.072 18.0867 93.5853 18.18 93.0587 18.18C92.532 18.18 92.042 18.0867 91.5887 17.9C91.142 17.7133 90.752 17.4567 90.4187 17.13C90.092 16.7967 89.8353 16.4033 89.6487 15.95C89.462 15.4967 89.3687 15 89.3687 14.46C89.3687 13.92 89.462 13.4233 89.6487 12.97C89.8353 12.5167 90.092 12.1267 90.4187 11.8C90.752 11.4667 91.142 11.2067 91.5887 11.02C92.042 10.8333 92.532 10.74 93.0587 10.74C93.5853 10.74 94.072 10.8333 94.5187 11.02C94.972 11.2067 95.362 11.4667 95.6887 11.8C96.022 12.1267 96.282 12.5167 96.4687 12.97C96.6553 13.4233 96.7487 13.92 96.7487 14.46ZM98.9085 14.05H100.189C100.509 14.05 100.779 14.0167 100.999 13.95C101.225 13.8833 101.405 13.7967 101.539 13.69C101.672 13.5767 101.769 13.4467 101.829 13.3C101.889 13.1467 101.919 12.9833 101.919 12.81C101.919 12.6433 101.889 12.4867 101.829 12.34C101.769 12.1867 101.672 12.0533 101.539 11.94C101.405 11.8267 101.225 11.74 100.999 11.68C100.779 11.6133 100.509 11.58 100.189 11.58H98.9085V14.05ZM98.9085 18H98.1885V10.92H100.369C101.089 10.92 101.655 11.0767 102.069 11.39C102.489 11.7033 102.699 12.1767 102.699 12.81C102.699 13.3033 102.542 13.72 102.229 14.06C101.922 14.3933 101.475 14.5867 100.889 14.64L102.929 18H102.049L100.109 14.71H98.9085V18ZM104.836 13.99H104.846H104.936L108.266 10.92H109.296L105.726 14.13L109.496 18H108.436L104.956 14.35H104.846H104.836V18H104.116V10.92H104.836V13.99ZM113.765 12.09C113.452 11.63 112.995 11.4 112.395 11.4C112.208 11.4 112.025 11.4267 111.845 11.48C111.665 11.5267 111.502 11.6033 111.355 11.71C111.215 11.81 111.102 11.9433 111.015 12.11C110.928 12.27 110.885 12.46 110.885 12.68C110.885 13 110.975 13.25 111.155 13.43C111.335 13.6033 111.558 13.7467 111.825 13.86C112.092 13.9733 112.382 14.0767 112.695 14.17C113.015 14.2567 113.308 14.3767 113.575 14.53C113.842 14.6767 114.065 14.8733 114.245 15.12C114.425 15.3667 114.515 15.7033 114.515 16.13C114.515 16.45 114.445 16.74 114.305 17C114.172 17.2533 113.992 17.4667 113.765 17.64C113.545 17.8133 113.295 17.9467 113.015 18.04C112.742 18.1333 112.465 18.18 112.185 18.18C111.752 18.18 111.338 18.1 110.945 17.94C110.558 17.7733 110.228 17.5033 109.955 17.13L110.605 16.66C110.758 16.92 110.972 17.13 111.245 17.29C111.518 17.4433 111.842 17.52 112.215 17.52C112.395 17.52 112.575 17.4933 112.755 17.44C112.935 17.38 113.095 17.2967 113.235 17.19C113.382 17.0767 113.502 16.94 113.595 16.78C113.688 16.62 113.735 16.4367 113.735 16.23C113.735 15.9833 113.682 15.78 113.575 15.62C113.475 15.4533 113.338 15.3167 113.165 15.21C112.998 15.0967 112.805 15.0033 112.585 14.93C112.372 14.8567 112.148 14.7833 111.915 14.71C111.688 14.6367 111.465 14.5533 111.245 14.46C111.032 14.3667 110.838 14.25 110.665 14.11C110.498 13.9633 110.362 13.7833 110.255 13.57C110.155 13.35 110.105 13.0767 110.105 12.75C110.105 12.41 110.168 12.1133 110.295 11.86C110.428 11.6067 110.602 11.3967 110.815 11.23C111.035 11.0633 111.282 10.94 111.555 10.86C111.828 10.78 112.108 10.74 112.395 10.74C112.795 10.74 113.158 10.8033 113.485 10.93C113.812 11.0567 114.115 11.28 114.395 11.6L113.765 12.09Z" fill="#2F2F2F"/>
</g>
<defs>
<filter id="filter0_ii_3940_11093" x="0.5" y="-4" width="131" height="37" filterUnits="userSpaceOnUse" color-interpolation-filters="sRGB">
<feFlood flood-opacity="0" result="BackgroundImageFix"/>
<feBlend mode="normal" in="SourceGraphic" in2="BackgroundImageFix" result="shape"/>
<feColorMatrix in="SourceAlpha" type="matrix" values="0 0 0 0 0 0 0 0 0 0 0 0 0 0 0 0 0 0 127 0" result="hardAlpha"/>
<feOffset dy="-4"/>
<feGaussianBlur stdDeviation="2"/>
<feComposite in2="hardAlpha" operator="arithmetic" k2="-1" k3="1"/>
<feColorMatrix type="matrix" values="0 0 0 0 0.930339 0 0 0 0 0.97113 0 0 0 0 0.763097 0 0 0 0.1 0"/>
<feBlend mode="normal" in2="shape" result="effect1_innerShadow_3940_11093"/>
<feColorMatrix in="SourceAlpha" type="matrix" values="0 0 0 0 0 0 0 0 0 0 0 0 0 0 0 0 0 0 127 0" result="hardAlpha"/>
<feOffset dy="3"/>
<feGaussianBlur stdDeviation="2"/>
<feComposite in2="hardAlpha" operator="arithmetic" k2="-1" k3="1"/>
<feColorMatrix type="matrix" values="0 0 0 0 0.490811 0 0 0 0 0.536249 0 0 0 0 0.304512 0 0 0 0.04 0"/>
<feBlend mode="normal" in2="effect1_innerShadow_3940_11093" result="effect2_innerShadow_3940_11093"/>
</filter>
</defs>
</svg>
