<svg width="138" height="39" viewBox="0 0 138 39" fill="none" xmlns="http://www.w3.org/2000/svg">
<path d="M52.5127 31.6009V21.6145H57.1833C59.359 21.6145 60.535 23.0843 60.535 24.8313C60.535 26.5699 59.3338 28.0397 57.1833 28.0397H54.638V31.6009H52.5127ZM58.3761 24.8313C58.3761 23.9914 57.7293 23.4875 56.8977 23.4875H54.6548V26.1667H56.8893C57.7293 26.1667 58.3761 25.6544 58.3761 24.8313Z" fill="#070707"/>
<path d="M65.8856 31.6008C65.8267 31.4076 65.7848 31.1893 65.7679 30.9457C65.5411 31.2061 65.2303 31.416 64.8523 31.5672C64.4743 31.7184 64.0375 31.8024 63.5335 31.8024C62.685 31.8024 62.0634 31.6176 61.6686 31.2397C61.2738 30.8617 61.0806 30.3746 61.0806 29.7782C61.0806 29.2491 61.1646 28.8292 61.3326 28.51C61.5006 28.1992 61.7358 27.9473 62.0382 27.7709C62.3406 27.5945 62.6934 27.4601 63.105 27.3761C63.5167 27.2922 63.9703 27.2166 64.4575 27.141C64.9447 27.0738 65.2723 26.9814 65.4487 26.8638C65.6167 26.7462 65.7007 26.5614 65.7007 26.3011C65.7007 26.0575 65.5915 25.8727 65.3647 25.7383C65.1379 25.604 64.8355 25.5368 64.4575 25.5368C64.0123 25.5368 63.6847 25.6375 63.4915 25.8391C63.2982 26.0407 63.1722 26.3011 63.1218 26.6286H61.3074C61.3158 26.2507 61.383 25.8979 61.4922 25.5788C61.6098 25.2596 61.7946 24.9824 62.0466 24.7557C62.2986 24.5289 62.6346 24.3525 63.0378 24.2265C63.4495 24.1005 63.9451 24.0417 64.5331 24.0417C65.1127 24.0417 65.5999 24.1089 66.0032 24.2349C66.4064 24.3609 66.7256 24.5541 66.9776 24.7977C67.2212 25.0412 67.3976 25.3436 67.5068 25.7131C67.616 26.0743 67.6748 26.4858 67.6748 26.9478V31.6008H65.8856ZM65.7511 27.9893C65.6503 28.0901 65.5075 28.1656 65.3143 28.2328C65.1211 28.2916 64.8523 28.3588 64.4911 28.426C63.9283 28.5352 63.5503 28.678 63.3403 28.846C63.1302 29.0139 63.0294 29.2575 63.0294 29.5767C63.0294 30.1226 63.3403 30.3998 63.9703 30.3998C64.2223 30.3998 64.4491 30.3578 64.6675 30.2738C64.8859 30.1898 65.0707 30.0722 65.2219 29.9294C65.3731 29.7866 65.4991 29.6187 65.5999 29.4171C65.6923 29.2239 65.7427 29.0139 65.7427 28.7956L65.7511 27.9893Z" fill="#070707"/>
<path d="M68.9434 33.4571L69.8002 32.0964C70.321 32.7263 71.2114 32.9783 71.9759 32.9783C73.2023 32.9783 73.9248 32.1384 73.9248 31.1221V30.3746C73.4291 30.9122 72.5639 31.4665 71.3795 31.4665C69.7918 31.4665 69.0442 30.6014 69.0442 29.1904V24.3694H70.9426V28.4429C70.9426 29.4423 71.4635 29.7783 72.2783 29.7783C73.0091 29.7783 73.5971 29.3752 73.9248 28.9552V24.3694H75.8232V31.1221C75.8232 33.2975 74.2776 34.5321 71.9759 34.5321C70.7578 34.5321 69.7834 34.1878 68.9434 33.4571ZM81.9135 31.6009V29.5347H77.1337V27.8549L81.0986 21.6145H84.0303V27.6618H85.3156V29.5347H84.0303V31.6009H81.9135ZM81.9135 23.4959L79.217 27.6618H81.9135V23.4959ZM95.3792 31.6009V24.3946L92.5651 31.6009H91.6326L88.8185 24.3946V31.6009H86.6933V21.6145H89.6754L92.1031 27.8549L94.5308 21.6145H97.5297V31.6009H95.3792ZM98.9913 27.9725C98.9913 25.8728 100.545 24.1846 102.738 24.1846C104.914 24.1846 106.358 25.8056 106.358 28.1489V28.5941H100.982C101.117 29.4759 101.839 30.2151 103.065 30.2151C103.679 30.2151 104.519 29.9631 104.981 29.5095L105.838 30.7694C105.115 31.4245 103.981 31.7689 102.855 31.7689C100.655 31.7773 98.9913 30.299 98.9913 27.9725ZM102.738 25.7468C101.553 25.7468 101.049 26.5699 100.974 27.2922H104.536C104.468 26.5951 103.99 25.7468 102.738 25.7468ZM118.531 31.6009L117.9 29.9127H113.616L112.986 31.6009H110.575L114.423 21.6145H117.086L120.933 31.6009H118.531ZM115.767 23.7394L114.213 28.0397H117.329L115.767 23.7394ZM123.73 30.6686V34.3557H121.832V24.3694H123.73V25.2849C124.285 24.5793 125.074 24.193 125.965 24.193C127.821 24.193 129.174 25.5704 129.174 27.9809C129.174 30.3914 127.83 31.7857 125.965 31.7857C125.108 31.7773 124.327 31.4245 123.73 30.6686ZM127.208 27.9725C127.208 26.7295 126.46 25.8728 125.368 25.8728C124.755 25.8728 124.066 26.2171 123.739 26.6959V29.2408C124.05 29.7027 124.755 30.0807 125.368 30.0807C126.452 30.0891 127.208 29.2324 127.208 27.9725ZM132.458 30.6686V34.3557H130.56V24.3694H132.458V25.2849C133.013 24.5793 133.802 24.193 134.693 24.193C136.549 24.193 137.902 25.5704 137.902 27.9809C137.902 30.3914 136.558 31.7857 134.693 31.7857C133.836 31.7773 133.063 31.4245 132.458 30.6686ZM135.936 27.9725C135.936 26.7295 135.188 25.8728 134.096 25.8728C133.483 25.8728 132.794 26.2171 132.467 26.6959V29.2408C132.777 29.7027 133.483 30.0807 134.096 30.0807C135.188 30.0891 135.936 29.2324 135.936 27.9725Z" fill="#070707"/>
<g opacity="0.78">
<path d="M40.3739 38.614H29.0586C25.3961 38.614 22.4224 35.6407 22.4224 31.9788V20.6738C22.4224 17.0118 25.3961 14.0386 29.0586 14.0386H40.3739C44.0364 14.0386 47.0101 17.0118 47.0101 20.6738V31.9872C47.0101 35.6491 44.0364 38.614 40.3739 38.614Z" fill="#7AC52D"/>
<path opacity="0.78" d="M26.0098 31.962V25.2512C26.0098 24.8985 26.2366 24.5877 26.5642 24.4785L29.4791 23.4958V27.0654C29.4791 27.5106 29.7563 27.9053 30.1679 28.0649C31.1676 28.4428 32.94 29.1148 33.4189 29.2743C33.9565 29.4507 33.8893 30.0638 33.8305 30.3074C33.7969 30.3242 33.7717 30.341 33.7381 30.3578L27.1018 32.7347C26.6818 32.8859 26.2114 32.6675 26.0602 32.2476C26.0266 32.1552 26.0098 32.0628 26.0098 31.962Z" fill="white"/>
<path opacity="0.53" d="M29.4785 23.4964V20.9343C29.4785 20.3463 29.9573 19.8674 30.5454 19.8674C30.6714 19.8674 30.789 19.8926 30.9066 19.9346L33.8467 20.9931L33.8971 21.0939C34.0567 21.5307 33.8383 22.0095 33.4015 22.1691C33.3931 22.1691 33.3847 22.1775 33.3679 22.1775L29.4785 23.4964Z" fill="white"/>
<path d="M33.8467 20.9929L33.8971 21.0937C34.0567 21.5304 33.8383 22.0092 33.4015 22.1688C33.3931 22.1688 33.3847 22.1772 33.3679 22.1772L29.4785 23.4958V27.0654C29.4785 27.5105 29.7557 27.9053 30.1673 28.0648C31.167 28.4428 32.9395 29.1147 33.4183 29.2743C33.9559 29.4507 33.8887 30.0638 33.8299 30.3074C34.2667 30.0554 34.5439 29.6103 34.5775 29.1063V22.1184C34.5775 21.7992 34.4515 21.4969 34.2415 21.2617C34.1323 21.1441 33.9979 21.0433 33.8467 20.9929Z" fill="white"/>
<path opacity="0.78" d="M43.4231 20.6907V27.4015C43.4231 27.7542 43.2047 28.065 42.8687 28.1742L39.9538 29.1568V25.5873C39.9538 25.1421 39.6766 24.7474 39.265 24.5878C38.2737 24.2098 36.4929 23.5379 36.014 23.3783C35.4764 23.202 35.5436 22.5888 35.6024 22.3453C35.636 22.3285 35.6612 22.3117 35.6948 22.2949L42.3311 19.918C42.7595 19.7668 43.2215 19.9852 43.3727 20.4135C43.4063 20.4975 43.4231 20.5983 43.4231 20.6907Z" fill="white"/>
<path d="M34.847 24.5037V30.3409C34.8386 29.3163 34.847 26.1163 34.847 24.5037Z" fill="white"/>
<path opacity="0.53" d="M39.954 29.1567V31.7188C39.954 32.3069 39.4752 32.7857 38.8872 32.7857C38.7612 32.7857 38.6436 32.7605 38.526 32.7185L35.5943 31.66L35.5439 31.5592C35.3842 31.1224 35.6027 30.6436 36.0395 30.484C36.0479 30.484 36.0563 30.4756 36.0731 30.4756L39.954 29.1567Z" fill="white"/>
<path d="M35.5941 31.6597L35.5437 31.5589C35.3841 31.1221 35.6025 30.6434 36.0393 30.4838C36.0477 30.4838 36.0561 30.4754 36.0729 30.4754L39.9623 29.1568V25.5872C39.9623 25.1421 39.6851 24.7473 39.2735 24.5877C38.2822 24.2098 36.5013 23.5379 36.0225 23.3783C35.4849 23.2019 35.5521 22.5888 35.6109 22.3452C35.1741 22.5972 34.8969 23.0507 34.8633 23.5463V30.5258C34.8633 30.845 34.9809 31.1473 35.1993 31.3825C35.3001 31.5085 35.4429 31.6009 35.5941 31.6597Z" fill="white"/>
</g>
</svg>
