<svg width="138" height="30" viewBox="0 0 138 30" fill="none" xmlns="http://www.w3.org/2000/svg">
<g filter="url(#filter0_ii_3940_11201)">
<rect x="0.5" width="137" height="30" rx="15" fill="#F5FDEC"/>
<path d="M19.789 15.6316L23.2782 10.1486C23.5467 9.72658 24.2 9.91682 24.2 10.417V14.2C24.2 14.2552 24.2448 14.3 24.3 14.3H26.7397C27.1442 14.3 27.3813 14.7554 27.1493 15.0867L23.7096 20.0006C23.4293 20.401 22.8 20.2027 22.8 19.7138V16.5C22.8 16.4448 22.7552 16.4 22.7 16.4H20.2108C19.8163 16.4 19.5772 15.9644 19.789 15.6316Z" stroke="#3B3A3A"/>
<path d="M43 16.98H43.02L44.8 10.92H45.66L47.44 16.98H47.46L49.14 10.92H49.94L47.85 18H47.01L45.23 11.94H45.21L43.43 18H42.59L40.5 10.92H41.3L43 16.98ZM50.9034 10.92H51.6234V13.99H55.4834V10.92H56.2034V18H55.4834V14.65H51.6234V18H50.9034V10.92ZM59.0502 15.48H62.1202L60.5902 11.76L59.0502 15.48ZM58.0002 18H57.1602L60.2402 10.92H60.9402L64.0202 18H63.1802L62.4002 16.14H58.7802L58.0002 18ZM66.562 18H65.842V11.58H63.472V10.92H68.932V11.58H66.562V18ZM74.3574 16.98H74.3774L76.1574 10.92H77.0174L78.7974 16.98H78.8174L80.4974 10.92H81.2974L79.2074 18H78.3674L76.5874 11.94H76.5674L74.7874 18H73.9474L71.8574 10.92H72.6574L74.3574 16.98ZM82.9808 17.34H86.7708V18H82.2608V10.92H86.6508V11.58H82.9808V13.99H86.4108V14.65H82.9808V17.34ZM97.0917 14.46C97.0917 14.0533 97.0251 13.6667 96.8917 13.3C96.7584 12.9267 96.5651 12.6 96.3117 12.32C96.0651 12.04 95.7617 11.8167 95.4017 11.65C95.0417 11.4833 94.6351 11.4 94.1817 11.4C93.7284 11.4 93.3217 11.4833 92.9617 11.65C92.6017 11.8167 92.2951 12.04 92.0417 12.32C91.7951 12.6 91.6051 12.9267 91.4717 13.3C91.3384 13.6667 91.2717 14.0533 91.2717 14.46C91.2717 14.8667 91.3384 15.2567 91.4717 15.63C91.6051 15.9967 91.7951 16.32 92.0417 16.6C92.2951 16.88 92.6017 17.1033 92.9617 17.27C93.3217 17.4367 93.7284 17.52 94.1817 17.52C94.6351 17.52 95.0417 17.4367 95.4017 17.27C95.7617 17.1033 96.0651 16.88 96.3117 16.6C96.5651 16.32 96.7584 15.9967 96.8917 15.63C97.0251 15.2567 97.0917 14.8667 97.0917 14.46ZM97.8717 14.46C97.8717 15 97.7784 15.4967 97.5917 15.95C97.4051 16.4033 97.1451 16.7967 96.8117 17.13C96.4851 17.4567 96.0951 17.7133 95.6417 17.9C95.1951 18.0867 94.7084 18.18 94.1817 18.18C93.6551 18.18 93.1651 18.0867 92.7117 17.9C92.2651 17.7133 91.8751 17.4567 91.5417 17.13C91.2151 16.7967 90.9584 16.4033 90.7717 15.95C90.5851 15.4967 90.4917 15 90.4917 14.46C90.4917 13.92 90.5851 13.4233 90.7717 12.97C90.9584 12.5167 91.2151 12.1267 91.5417 11.8C91.8751 11.4667 92.2651 11.2067 92.7117 11.02C93.1651 10.8333 93.6551 10.74 94.1817 10.74C94.7084 10.74 95.1951 10.8333 95.6417 11.02C96.0951 11.2067 96.4851 11.4667 96.8117 11.8C97.1451 12.1267 97.4051 12.5167 97.5917 12.97C97.7784 13.4233 97.8717 13.92 97.8717 14.46ZM100.032 18H99.3116V10.92H103.582V11.58H100.032V13.99H103.332V14.65H100.032V18ZM105.588 18H104.868V10.92H109.138V11.58H105.588V13.99H108.888V14.65H105.588V18ZM111.145 17.34H114.935V18H110.425V10.92H114.815V11.58H111.145V13.99H114.575V14.65H111.145V17.34ZM117.073 14.05H118.353C118.673 14.05 118.943 14.0167 119.163 13.95C119.389 13.8833 119.569 13.7967 119.703 13.69C119.836 13.5767 119.933 13.4467 119.993 13.3C120.053 13.1467 120.083 12.9833 120.083 12.81C120.083 12.6433 120.053 12.4867 119.993 12.34C119.933 12.1867 119.836 12.0533 119.703 11.94C119.569 11.8267 119.389 11.74 119.163 11.68C118.943 11.6133 118.673 11.58 118.353 11.58H117.073V14.05ZM117.073 18H116.353V10.92H118.533C119.253 10.92 119.819 11.0767 120.233 11.39C120.653 11.7033 120.863 12.1767 120.863 12.81C120.863 13.3033 120.706 13.72 120.393 14.06C120.086 14.3933 119.639 14.5867 119.053 14.64L121.093 18H120.213L118.273 14.71H117.073V18Z" fill="#2F2F2F"/>
</g>
<defs>
<filter id="filter0_ii_3940_11201" x="0.5" y="-4" width="137" height="37" filterUnits="userSpaceOnUse" color-interpolation-filters="sRGB">
<feFlood flood-opacity="0" result="BackgroundImageFix"/>
<feBlend mode="normal" in="SourceGraphic" in2="BackgroundImageFix" result="shape"/>
<feColorMatrix in="SourceAlpha" type="matrix" values="0 0 0 0 0 0 0 0 0 0 0 0 0 0 0 0 0 0 127 0" result="hardAlpha"/>
<feOffset dy="-4"/>
<feGaussianBlur stdDeviation="2"/>
<feComposite in2="hardAlpha" operator="arithmetic" k2="-1" k3="1"/>
<feColorMatrix type="matrix" values="0 0 0 0 0.930339 0 0 0 0 0.97113 0 0 0 0 0.763097 0 0 0 0.1 0"/>
<feBlend mode="normal" in2="shape" result="effect1_innerShadow_3940_11201"/>
<feColorMatrix in="SourceAlpha" type="matrix" values="0 0 0 0 0 0 0 0 0 0 0 0 0 0 0 0 0 0 127 0" result="hardAlpha"/>
<feOffset dy="3"/>
<feGaussianBlur stdDeviation="2"/>
<feComposite in2="hardAlpha" operator="arithmetic" k2="-1" k3="1"/>
<feColorMatrix type="matrix" values="0 0 0 0 0.490811 0 0 0 0 0.536249 0 0 0 0 0.304512 0 0 0 0.04 0"/>
<feBlend mode="normal" in2="effect1_innerShadow_3940_11201" result="effect2_innerShadow_3940_11201"/>
</filter>
</defs>
</svg>
