<svg width="20" height="20" viewBox="0 0 20 20" fill="none" xmlns="http://www.w3.org/2000/svg">
<path d="M17.9153 8.09107L4.26711 0.289638C3.93278 0.0989477 3.55426 -0.000637309 3.16938 0.000840179C2.7845 0.00231767 2.40675 0.104806 2.0739 0.298058C1.74105 0.491309 1.46477 0.768553 1.27267 1.10207C1.08057 1.43558 0.979393 1.81368 0.979248 2.19857V17.8014C0.979215 18.1866 1.08036 18.565 1.27255 18.8987C1.46474 19.2325 1.74123 19.5099 2.07435 19.7032C2.40747 19.8965 2.78553 19.9989 3.17067 20.0002C3.55581 20.0014 3.93452 19.9015 4.26889 19.7104L17.915 11.9086C18.2514 11.7162 18.5311 11.4384 18.7256 11.1032C18.92 10.768 19.0225 10.3874 19.0225 9.99982C19.0225 9.61228 18.92 9.23162 18.7256 8.89642C18.5311 8.56122 18.2518 8.28339 17.9153 8.09107ZM12.001 6.24642L10.1271 8.85714L5.64461 2.61321L12.001 6.24642ZM3.08996 18.6589C2.96739 18.6479 2.84863 18.6106 2.74175 18.5496C2.61058 18.4732 2.50175 18.3638 2.42611 18.2322C2.35046 18.1006 2.31066 17.9514 2.31068 17.7996V2.19857C2.3102 1.98424 2.38964 1.77743 2.53347 1.61854C2.67731 1.45964 2.87522 1.36007 3.08853 1.33928L9.30639 10L3.08996 18.6589ZM5.64461 17.3868L10.1271 11.1429L12.001 13.7532L5.64461 17.3868ZM17.2517 10.7511L13.1646 13.0882L10.9478 10L13.165 6.91178L17.2535 9.25C17.386 9.32565 17.496 9.43496 17.5726 9.56686C17.6491 9.69877 17.6894 9.84856 17.6894 10.0011C17.6894 10.1536 17.6491 10.3034 17.5726 10.4353C17.496 10.5672 17.386 10.6765 17.2535 10.7521L17.2517 10.7511Z" fill="#242323"/>
</svg>
