<svg width="397" height="397" viewBox="0 0 397 397" fill="none" xmlns="http://www.w3.org/2000/svg">
<rect width="396.5" height="396.5" rx="29.235" fill="white"/>
<g clip-path="url(#clip0_3940_11437)">
<mask id="mask0_3940_11437" style="mask-type:luminance" maskUnits="userSpaceOnUse" x="49" y="49" width="299" height="299">
<path d="M142.219 49.7219H131.668V60.2726H142.219V49.7219Z" fill="white"/>
<path d="M152.462 49.7219H141.912V60.2726H152.462V49.7219Z" fill="white"/>
<path d="M172.949 49.7219H162.398V60.2726H172.949V49.7219Z" fill="white"/>
<path d="M203.679 49.7219H193.128V60.2726H203.679V49.7219Z" fill="white"/>
<path d="M213.922 49.7219H203.372V60.2726H213.922V49.7219Z" fill="white"/>
<path d="M224.166 49.7219H213.615V60.2726H224.166V49.7219Z" fill="white"/>
<path d="M234.409 49.7219H223.858V60.2726H234.409V49.7219Z" fill="white"/>
<path d="M244.652 49.7219H234.102V60.2726H244.652V49.7219Z" fill="white"/>
<path d="M142.219 59.9648H131.668V70.5155H142.219V59.9648Z" fill="white"/>
<path d="M152.462 59.9648H141.912V70.5155H152.462V59.9648Z" fill="white"/>
<path d="M162.706 59.9648H152.155V70.5155H162.706V59.9648Z" fill="white"/>
<path d="M172.949 59.9648H162.398V70.5155H172.949V59.9648Z" fill="white"/>
<path d="M183.192 59.9648H172.642V70.5155H183.192V59.9648Z" fill="white"/>
<path d="M203.679 59.9648H193.128V70.5155H203.679V59.9648Z" fill="white"/>
<path d="M224.166 59.9648H213.615V70.5155H224.166V59.9648Z" fill="white"/>
<path d="M234.409 59.9648H223.858V70.5155H234.409V59.9648Z" fill="white"/>
<path d="M142.219 70.2085H131.668V80.7591H142.219V70.2085Z" fill="white"/>
<path d="M172.949 70.2085H162.398V80.7591H172.949V70.2085Z" fill="white"/>
<path d="M183.192 70.2085H172.642V80.7591H183.192V70.2085Z" fill="white"/>
<path d="M193.436 70.2085H182.885V80.7591H193.436V70.2085Z" fill="white"/>
<path d="M203.679 70.2085H193.128V80.7591H203.679V70.2085Z" fill="white"/>
<path d="M244.652 70.2085H234.102V80.7591H244.652V70.2085Z" fill="white"/>
<path d="M254.896 70.2085H244.345V80.7591H254.896V70.2085Z" fill="white"/>
<path d="M162.706 80.4517H152.155V91.0023H162.706V80.4517Z" fill="white"/>
<path d="M193.436 80.4517H182.885V91.0023H193.436V80.4517Z" fill="white"/>
<path d="M213.922 80.4517H203.372V91.0023H213.922V80.4517Z" fill="white"/>
<path d="M224.166 80.4517H213.615V91.0023H224.166V80.4517Z" fill="white"/>
<path d="M234.409 80.4517H223.858V91.0023H234.409V80.4517Z" fill="white"/>
<path d="M162.706 90.6953H152.155V101.246H162.706V90.6953Z" fill="white"/>
<path d="M172.949 90.6953H162.398V101.246H172.949V90.6953Z" fill="white"/>
<path d="M203.679 90.6953H193.128V101.246H203.679V90.6953Z" fill="white"/>
<path d="M234.409 90.6953H223.858V101.246H234.409V90.6953Z" fill="white"/>
<path d="M244.652 90.6953H234.102V101.246H244.652V90.6953Z" fill="white"/>
<path d="M254.896 90.6953H244.345V101.246H254.896V90.6953Z" fill="white"/>
<path d="M142.219 100.938H131.668V111.489H142.219V100.938Z" fill="white"/>
<path d="M152.462 100.938H141.912V111.489H152.462V100.938Z" fill="white"/>
<path d="M203.679 100.938H193.128V111.489H203.679V100.938Z" fill="white"/>
<path d="M224.166 100.938H213.615V111.489H224.166V100.938Z" fill="white"/>
<path d="M234.409 100.938H223.858V111.489H234.409V100.938Z" fill="white"/>
<path d="M142.219 111.182H131.668V121.733H142.219V111.182Z" fill="white"/>
<path d="M162.706 111.182H152.155V121.733H162.706V111.182Z" fill="white"/>
<path d="M183.192 111.182H172.642V121.733H183.192V111.182Z" fill="white"/>
<path d="M203.679 111.182H193.128V121.733H203.679V111.182Z" fill="white"/>
<path d="M224.166 111.182H213.615V121.733H224.166V111.182Z" fill="white"/>
<path d="M244.652 111.182H234.102V121.733H244.652V111.182Z" fill="white"/>
<path d="M265.139 111.182H254.588V121.733H265.139V111.182Z" fill="white"/>
<path d="M142.219 121.425H131.668V131.975H142.219V121.425Z" fill="white"/>
<path d="M152.462 121.425H141.912V131.975H152.462V121.425Z" fill="white"/>
<path d="M162.706 121.425H152.155V131.975H162.706V121.425Z" fill="white"/>
<path d="M203.679 121.425H193.128V131.975H203.679V121.425Z" fill="white"/>
<path d="M224.166 121.425H213.615V131.975H224.166V121.425Z" fill="white"/>
<path d="M234.409 121.425H223.858V131.975H234.409V121.425Z" fill="white"/>
<path d="M244.652 121.425H234.102V131.975H244.652V121.425Z" fill="white"/>
<path d="M254.896 121.425H244.345V131.975H254.896V121.425Z" fill="white"/>
<path d="M80.759 131.668H70.2084V142.219H80.759V131.668Z" fill="white"/>
<path d="M91.0023 131.668H80.4517V142.219H91.0023V131.668Z" fill="white"/>
<path d="M101.246 131.668H90.695V142.219H101.246V131.668Z" fill="white"/>
<path d="M121.732 131.668H111.182V142.219H121.732V131.668Z" fill="white"/>
<path d="M142.219 131.668H131.668V142.219H142.219V131.668Z" fill="white"/>
<path d="M172.949 131.668H162.398V142.219H172.949V131.668Z" fill="white"/>
<path d="M193.436 131.668H182.885V142.219H193.436V131.668Z" fill="white"/>
<path d="M224.166 131.668H213.615V142.219H224.166V131.668Z" fill="white"/>
<path d="M265.139 131.668H254.588V142.219H265.139V131.668Z" fill="white"/>
<path d="M275.382 131.668H264.832V142.219H275.382V131.668Z" fill="white"/>
<path d="M285.626 131.668H275.075V142.219H285.626V131.668Z" fill="white"/>
<path d="M295.869 131.668H285.318V142.219H295.869V131.668Z" fill="white"/>
<path d="M326.599 131.668H316.048V142.219H326.599V131.668Z" fill="white"/>
<path d="M336.842 131.668H326.292V142.219H336.842V131.668Z" fill="white"/>
<path d="M347.086 131.668H336.535V142.219H347.086V131.668Z" fill="white"/>
<path d="M60.2723 141.912H49.7217V152.462H60.2723V141.912Z" fill="white"/>
<path d="M111.489 141.912H100.938V152.462H111.489V141.912Z" fill="white"/>
<path d="M131.976 141.912H121.425V152.462H131.976V141.912Z" fill="white"/>
<path d="M162.706 141.912H152.155V152.462H162.706V141.912Z" fill="white"/>
<path d="M172.949 141.912H162.398V152.462H172.949V141.912Z" fill="white"/>
<path d="M203.679 141.912H193.128V152.462H203.679V141.912Z" fill="white"/>
<path d="M213.922 141.912H203.372V152.462H213.922V141.912Z" fill="white"/>
<path d="M244.652 141.912H234.102V152.462H244.652V141.912Z" fill="white"/>
<path d="M254.896 141.912H244.345V152.462H254.896V141.912Z" fill="white"/>
<path d="M285.626 141.912H275.075V152.462H285.626V141.912Z" fill="white"/>
<path d="M295.869 141.912H285.318V152.462H295.869V141.912Z" fill="white"/>
<path d="M306.112 141.912H295.562V152.462H306.112V141.912Z" fill="white"/>
<path d="M316.356 141.912H305.805V152.462H316.356V141.912Z" fill="white"/>
<path d="M347.086 141.912H336.535V152.462H347.086V141.912Z" fill="white"/>
<path d="M60.2723 152.155H49.7217V162.706H60.2723V152.155Z" fill="white"/>
<path d="M70.5156 152.155H59.965V162.706H70.5156V152.155Z" fill="white"/>
<path d="M111.489 152.155H100.938V162.706H111.489V152.155Z" fill="white"/>
<path d="M121.732 152.155H111.182V162.706H121.732V152.155Z" fill="white"/>
<path d="M152.462 152.155H141.912V162.706H152.462V152.155Z" fill="white"/>
<path d="M162.706 152.155H152.155V162.706H162.706V152.155Z" fill="white"/>
<path d="M213.922 152.155H203.372V162.706H213.922V152.155Z" fill="white"/>
<path d="M234.409 152.155H223.858V162.706H234.409V152.155Z" fill="white"/>
<path d="M244.652 152.155H234.102V162.706H244.652V152.155Z" fill="white"/>
<path d="M265.139 152.155H254.588V162.706H265.139V152.155Z" fill="white"/>
<path d="M275.382 152.155H264.832V162.706H275.382V152.155Z" fill="white"/>
<path d="M285.626 152.155H275.075V162.706H285.626V152.155Z" fill="white"/>
<path d="M91.0023 162.398H80.4517V172.949H91.0023V162.398Z" fill="white"/>
<path d="M101.246 162.398H90.695V172.949H101.246V162.398Z" fill="white"/>
<path d="M131.976 162.398H121.425V172.949H131.976V162.398Z" fill="white"/>
<path d="M142.219 162.398H131.668V172.949H142.219V162.398Z" fill="white"/>
<path d="M152.462 162.398H141.912V172.949H152.462V162.398Z" fill="white"/>
<path d="M162.706 162.398H152.155V172.949H162.706V162.398Z" fill="white"/>
<path d="M172.949 162.398H162.398V172.949H172.949V162.398Z" fill="white"/>
<path d="M193.436 162.398H182.885V172.949H193.436V162.398Z" fill="white"/>
<path d="M213.922 162.398H203.372V172.949H213.922V162.398Z" fill="white"/>
<path d="M234.409 162.398H223.858V172.949H234.409V162.398Z" fill="white"/>
<path d="M244.652 162.398H234.102V172.949H244.652V162.398Z" fill="white"/>
<path d="M254.896 162.398H244.345V172.949H254.896V162.398Z" fill="white"/>
<path d="M265.139 162.398H254.588V172.949H265.139V162.398Z" fill="white"/>
<path d="M275.382 162.398H264.832V172.949H275.382V162.398Z" fill="white"/>
<path d="M285.626 162.398H275.075V172.949H285.626V162.398Z" fill="white"/>
<path d="M306.112 162.398H295.562V172.949H306.112V162.398Z" fill="white"/>
<path d="M316.356 162.398H305.805V172.949H316.356V162.398Z" fill="white"/>
<path d="M336.842 162.398H326.292V172.949H336.842V162.398Z" fill="white"/>
<path d="M70.5156 172.642H59.965V183.192H70.5156V172.642Z" fill="white"/>
<path d="M91.0023 172.642H80.4517V183.192H91.0023V172.642Z" fill="white"/>
<path d="M101.246 172.642H90.695V183.192H101.246V172.642Z" fill="white"/>
<path d="M111.489 172.642H100.938V183.192H111.489V172.642Z" fill="white"/>
<path d="M121.732 172.642H111.182V183.192H121.732V172.642Z" fill="white"/>
<path d="M203.679 172.642H193.128V183.192H203.679V172.642Z" fill="white"/>
<path d="M213.922 172.642H203.372V183.192H213.922V172.642Z" fill="white"/>
<path d="M244.652 172.642H234.102V183.192H244.652V172.642Z" fill="white"/>
<path d="M254.896 172.642H244.345V183.192H254.896V172.642Z" fill="white"/>
<path d="M265.139 172.642H254.588V183.192H265.139V172.642Z" fill="white"/>
<path d="M275.382 172.642H264.832V183.192H275.382V172.642Z" fill="white"/>
<path d="M295.869 172.642H285.318V183.192H295.869V172.642Z" fill="white"/>
<path d="M326.599 172.642H316.048V183.192H326.599V172.642Z" fill="white"/>
<path d="M336.842 172.642H326.292V183.192H336.842V172.642Z" fill="white"/>
<path d="M347.086 172.642H336.535V183.192H347.086V172.642Z" fill="white"/>
<path d="M60.2723 182.885H49.7217V193.436H60.2723V182.885Z" fill="white"/>
<path d="M70.5156 182.885H59.965V193.436H70.5156V182.885Z" fill="white"/>
<path d="M80.759 182.885H70.2084V193.436H80.759V182.885Z" fill="white"/>
<path d="M91.0023 182.885H80.4517V193.436H91.0023V182.885Z" fill="white"/>
<path d="M101.246 182.885H90.695V193.436H101.246V182.885Z" fill="white"/>
<path d="M111.489 182.885H100.938V193.436H111.489V182.885Z" fill="white"/>
<path d="M131.976 182.885H121.425V193.436H131.976V182.885Z" fill="white"/>
<path d="M162.706 182.885H152.155V193.436H162.706V182.885Z" fill="white"/>
<path d="M203.679 182.885H193.128V193.436H203.679V182.885Z" fill="white"/>
<path d="M213.922 182.885H203.372V193.436H213.922V182.885Z" fill="white"/>
<path d="M244.652 182.885H234.102V193.436H244.652V182.885Z" fill="white"/>
<path d="M254.896 182.885H244.345V193.436H254.896V182.885Z" fill="white"/>
<path d="M265.139 182.885H254.588V193.436H265.139V182.885Z" fill="white"/>
<path d="M275.382 182.885H264.832V193.436H275.382V182.885Z" fill="white"/>
<path d="M285.626 182.885H275.075V193.436H285.626V182.885Z" fill="white"/>
<path d="M306.112 182.885H295.562V193.436H306.112V182.885Z" fill="white"/>
<path d="M316.356 182.885H305.805V193.436H316.356V182.885Z" fill="white"/>
<path d="M336.842 182.885H326.292V193.436H336.842V182.885Z" fill="white"/>
<path d="M347.086 182.885H336.535V193.436H347.086V182.885Z" fill="white"/>
<path d="M70.5156 193.128H59.965V203.679H70.5156V193.128Z" fill="white"/>
<path d="M121.732 193.128H111.182V203.679H121.732V193.128Z" fill="white"/>
<path d="M131.976 193.128H121.425V203.679H131.976V193.128Z" fill="white"/>
<path d="M152.462 193.128H141.912V203.679H152.462V193.128Z" fill="white"/>
<path d="M172.949 193.128H162.398V203.679H172.949V193.128Z" fill="white"/>
<path d="M183.192 193.128H172.642V203.679H183.192V193.128Z" fill="white"/>
<path d="M224.166 193.128H213.615V203.679H224.166V193.128Z" fill="white"/>
<path d="M265.139 193.128H254.588V203.679H265.139V193.128Z" fill="white"/>
<path d="M275.382 193.128H264.832V203.679H275.382V193.128Z" fill="white"/>
<path d="M285.626 193.128H275.075V203.679H285.626V193.128Z" fill="white"/>
<path d="M295.869 193.128H285.318V203.679H295.869V193.128Z" fill="white"/>
<path d="M70.5156 203.372H59.965V213.923H70.5156V203.372Z" fill="white"/>
<path d="M80.759 203.372H70.2084V213.923H80.759V203.372Z" fill="white"/>
<path d="M101.246 203.372H90.695V213.923H101.246V203.372Z" fill="white"/>
<path d="M111.489 203.372H100.938V213.923H111.489V203.372Z" fill="white"/>
<path d="M142.219 203.372H131.668V213.923H142.219V203.372Z" fill="white"/>
<path d="M203.679 203.372H193.128V213.923H203.679V203.372Z" fill="white"/>
<path d="M213.922 203.372H203.372V213.923H213.922V203.372Z" fill="white"/>
<path d="M224.166 203.372H213.615V213.923H224.166V203.372Z" fill="white"/>
<path d="M244.652 203.372H234.102V213.923H244.652V203.372Z" fill="white"/>
<path d="M275.382 203.372H264.832V213.923H275.382V203.372Z" fill="white"/>
<path d="M285.626 203.372H275.075V213.923H285.626V203.372Z" fill="white"/>
<path d="M306.112 203.372H295.562V213.923H306.112V203.372Z" fill="white"/>
<path d="M316.356 203.372H305.805V213.923H316.356V203.372Z" fill="white"/>
<path d="M347.086 203.372H336.535V213.923H347.086V203.372Z" fill="white"/>
<path d="M60.2723 213.615H49.7217V224.165H60.2723V213.615Z" fill="white"/>
<path d="M91.0023 213.615H80.4517V224.165H91.0023V213.615Z" fill="white"/>
<path d="M121.732 213.615H111.182V224.165H121.732V213.615Z" fill="white"/>
<path d="M152.462 213.615H141.912V224.165H152.462V213.615Z" fill="white"/>
<path d="M193.436 213.615H182.885V224.165H193.436V213.615Z" fill="white"/>
<path d="M244.652 213.615H234.102V224.165H244.652V213.615Z" fill="white"/>
<path d="M306.112 213.615H295.562V224.165H306.112V213.615Z" fill="white"/>
<path d="M316.356 213.615H305.805V224.165H316.356V213.615Z" fill="white"/>
<path d="M326.599 213.615H316.048V224.165H326.599V213.615Z" fill="white"/>
<path d="M347.086 213.615H336.535V224.165H347.086V213.615Z" fill="white"/>
<path d="M60.2723 223.858H49.7217V234.409H60.2723V223.858Z" fill="white"/>
<path d="M101.246 223.858H90.695V234.409H101.246V223.858Z" fill="white"/>
<path d="M111.489 223.858H100.938V234.409H111.489V223.858Z" fill="white"/>
<path d="M131.976 223.858H121.425V234.409H131.976V223.858Z" fill="white"/>
<path d="M142.219 223.858H131.668V234.409H142.219V223.858Z" fill="white"/>
<path d="M162.706 223.858H152.155V234.409H162.706V223.858Z" fill="white"/>
<path d="M172.949 223.858H162.398V234.409H172.949V223.858Z" fill="white"/>
<path d="M183.192 223.858H172.642V234.409H183.192V223.858Z" fill="white"/>
<path d="M234.409 223.858H223.858V234.409H234.409V223.858Z" fill="white"/>
<path d="M265.139 223.858H254.588V234.409H265.139V223.858Z" fill="white"/>
<path d="M275.382 223.858H264.832V234.409H275.382V223.858Z" fill="white"/>
<path d="M285.626 223.858H275.075V234.409H285.626V223.858Z" fill="white"/>
<path d="M295.869 223.858H285.318V234.409H295.869V223.858Z" fill="white"/>
<path d="M306.112 223.858H295.562V234.409H306.112V223.858Z" fill="white"/>
<path d="M316.356 223.858H305.805V234.409H316.356V223.858Z" fill="white"/>
<path d="M336.842 223.858H326.292V234.409H336.842V223.858Z" fill="white"/>
<path d="M347.086 223.858H336.535V234.409H347.086V223.858Z" fill="white"/>
<path d="M60.2723 234.102H49.7217V244.652H60.2723V234.102Z" fill="white"/>
<path d="M80.759 234.102H70.2084V244.652H80.759V234.102Z" fill="white"/>
<path d="M91.0023 234.102H80.4517V244.652H91.0023V234.102Z" fill="white"/>
<path d="M101.246 234.102H90.695V244.652H101.246V234.102Z" fill="white"/>
<path d="M111.489 234.102H100.938V244.652H111.489V234.102Z" fill="white"/>
<path d="M121.732 234.102H111.182V244.652H121.732V234.102Z" fill="white"/>
<path d="M131.976 234.102H121.425V244.652H131.976V234.102Z" fill="white"/>
<path d="M142.219 234.102H131.668V244.652H142.219V234.102Z" fill="white"/>
<path d="M162.706 234.102H152.155V244.652H162.706V234.102Z" fill="white"/>
<path d="M172.949 234.102H162.398V244.652H172.949V234.102Z" fill="white"/>
<path d="M183.192 234.102H172.642V244.652H183.192V234.102Z" fill="white"/>
<path d="M213.922 234.102H203.372V244.652H213.922V234.102Z" fill="white"/>
<path d="M234.409 234.102H223.858V244.652H234.409V234.102Z" fill="white"/>
<path d="M285.626 234.102H275.075V244.652H285.626V234.102Z" fill="white"/>
<path d="M295.869 234.102H285.318V244.652H295.869V234.102Z" fill="white"/>
<path d="M316.356 234.102H305.805V244.652H316.356V234.102Z" fill="white"/>
<path d="M60.2723 244.345H49.7217V254.896H60.2723V244.345Z" fill="white"/>
<path d="M91.0023 244.345H80.4517V254.896H91.0023V244.345Z" fill="white"/>
<path d="M101.246 244.345H90.695V254.896H101.246V244.345Z" fill="white"/>
<path d="M111.489 244.345H100.938V254.896H111.489V244.345Z" fill="white"/>
<path d="M142.219 244.345H131.668V254.896H142.219V244.345Z" fill="white"/>
<path d="M152.462 244.345H141.912V254.896H152.462V244.345Z" fill="white"/>
<path d="M172.949 244.345H162.398V254.896H172.949V244.345Z" fill="white"/>
<path d="M183.192 244.345H172.642V254.896H183.192V244.345Z" fill="white"/>
<path d="M234.409 244.345H223.858V254.896H234.409V244.345Z" fill="white"/>
<path d="M244.652 244.345H234.102V254.896H244.652V244.345Z" fill="white"/>
<path d="M254.896 244.345H244.345V254.896H254.896V244.345Z" fill="white"/>
<path d="M285.626 244.345H275.075V254.896H285.626V244.345Z" fill="white"/>
<path d="M295.869 244.345H285.318V254.896H295.869V244.345Z" fill="white"/>
<path d="M316.356 244.345H305.805V254.896H316.356V244.345Z" fill="white"/>
<path d="M347.086 244.345H336.535V254.896H347.086V244.345Z" fill="white"/>
<path d="M60.2723 254.589H49.7217V265.139H60.2723V254.589Z" fill="white"/>
<path d="M91.0023 254.589H80.4517V265.139H91.0023V254.589Z" fill="white"/>
<path d="M101.246 254.589H90.695V265.139H101.246V254.589Z" fill="white"/>
<path d="M111.489 254.589H100.938V265.139H111.489V254.589Z" fill="white"/>
<path d="M121.732 254.589H111.182V265.139H121.732V254.589Z" fill="white"/>
<path d="M162.706 254.589H152.155V265.139H162.706V254.589Z" fill="white"/>
<path d="M172.949 254.589H162.398V265.139H172.949V254.589Z" fill="white"/>
<path d="M183.192 254.589H172.642V265.139H183.192V254.589Z" fill="white"/>
<path d="M193.436 254.589H182.885V265.139H193.436V254.589Z" fill="white"/>
<path d="M234.409 254.589H223.858V265.139H234.409V254.589Z" fill="white"/>
<path d="M254.896 254.589H244.345V265.139H254.896V254.589Z" fill="white"/>
<path d="M265.139 254.589H254.588V265.139H265.139V254.589Z" fill="white"/>
<path d="M275.382 254.589H264.832V265.139H275.382V254.589Z" fill="white"/>
<path d="M285.626 254.589H275.075V265.139H285.626V254.589Z" fill="white"/>
<path d="M295.869 254.589H285.318V265.139H295.869V254.589Z" fill="white"/>
<path d="M306.112 254.589H295.562V265.139H306.112V254.589Z" fill="white"/>
<path d="M316.356 254.589H305.805V265.139H316.356V254.589Z" fill="white"/>
<path d="M326.599 254.589H316.048V265.139H326.599V254.589Z" fill="white"/>
<path d="M142.219 264.832H131.668V275.382H142.219V264.832Z" fill="white"/>
<path d="M172.949 264.832H162.398V275.382H172.949V264.832Z" fill="white"/>
<path d="M193.436 264.832H182.885V275.382H193.436V264.832Z" fill="white"/>
<path d="M244.652 264.832H234.102V275.382H244.652V264.832Z" fill="white"/>
<path d="M254.896 264.832H244.345V275.382H254.896V264.832Z" fill="white"/>
<path d="M265.139 264.832H254.588V275.382H265.139V264.832Z" fill="white"/>
<path d="M306.112 264.832H295.562V275.382H306.112V264.832Z" fill="white"/>
<path d="M316.356 264.832H305.805V275.382H316.356V264.832Z" fill="white"/>
<path d="M336.842 264.832H326.292V275.382H336.842V264.832Z" fill="white"/>
<path d="M347.086 264.832H336.535V275.382H347.086V264.832Z" fill="white"/>
<path d="M152.462 275.075H141.912V285.626H152.462V275.075Z" fill="white"/>
<path d="M183.192 275.075H172.642V285.626H183.192V275.075Z" fill="white"/>
<path d="M203.679 275.075H193.128V285.626H203.679V275.075Z" fill="white"/>
<path d="M213.922 275.075H203.372V285.626H213.922V275.075Z" fill="white"/>
<path d="M244.652 275.075H234.102V285.626H244.652V275.075Z" fill="white"/>
<path d="M254.896 275.075H244.345V285.626H254.896V275.075Z" fill="white"/>
<path d="M265.139 275.075H254.588V285.626H265.139V275.075Z" fill="white"/>
<path d="M285.626 275.075H275.075V285.626H285.626V275.075Z" fill="white"/>
<path d="M306.112 275.075H295.562V285.626H306.112V275.075Z" fill="white"/>
<path d="M152.462 285.319H141.912V295.869H152.462V285.319Z" fill="white"/>
<path d="M172.949 285.319H162.398V295.869H172.949V285.319Z" fill="white"/>
<path d="M203.679 285.319H193.128V295.869H203.679V285.319Z" fill="white"/>
<path d="M224.166 285.319H213.615V295.869H224.166V285.319Z" fill="white"/>
<path d="M254.896 285.319H244.345V295.869H254.896V285.319Z" fill="white"/>
<path d="M265.139 285.319H254.588V295.869H265.139V285.319Z" fill="white"/>
<path d="M306.112 285.319H295.562V295.869H306.112V285.319Z" fill="white"/>
<path d="M316.356 285.319H305.805V295.869H316.356V285.319Z" fill="white"/>
<path d="M347.086 285.319H336.535V295.869H347.086V285.319Z" fill="white"/>
<path d="M142.219 295.561H131.668V306.112H142.219V295.561Z" fill="white"/>
<path d="M152.462 295.561H141.912V306.112H152.462V295.561Z" fill="white"/>
<path d="M162.706 295.561H152.155V306.112H162.706V295.561Z" fill="white"/>
<path d="M224.166 295.561H213.615V306.112H224.166V295.561Z" fill="white"/>
<path d="M265.139 295.561H254.588V306.112H265.139V295.561Z" fill="white"/>
<path d="M275.382 295.561H264.832V306.112H275.382V295.561Z" fill="white"/>
<path d="M285.626 295.561H275.075V306.112H285.626V295.561Z" fill="white"/>
<path d="M295.869 295.561H285.318V306.112H295.869V295.561Z" fill="white"/>
<path d="M306.112 295.561H295.562V306.112H306.112V295.561Z" fill="white"/>
<path d="M316.356 295.561H305.805V306.112H316.356V295.561Z" fill="white"/>
<path d="M326.599 295.561H316.048V306.112H326.599V295.561Z" fill="white"/>
<path d="M336.842 295.561H326.292V306.112H336.842V295.561Z" fill="white"/>
<path d="M142.219 305.805H131.668V316.355H142.219V305.805Z" fill="white"/>
<path d="M172.949 305.805H162.398V316.355H172.949V305.805Z" fill="white"/>
<path d="M183.192 305.805H172.642V316.355H183.192V305.805Z" fill="white"/>
<path d="M203.679 305.805H193.128V316.355H203.679V305.805Z" fill="white"/>
<path d="M213.922 305.805H203.372V316.355H213.922V305.805Z" fill="white"/>
<path d="M254.896 305.805H244.345V316.355H254.896V305.805Z" fill="white"/>
<path d="M265.139 305.805H254.588V316.355H265.139V305.805Z" fill="white"/>
<path d="M275.382 305.805H264.832V316.355H275.382V305.805Z" fill="white"/>
<path d="M295.869 305.805H285.318V316.355H295.869V305.805Z" fill="white"/>
<path d="M142.219 316.048H131.668V326.599H142.219V316.048Z" fill="white"/>
<path d="M152.462 316.048H141.912V326.599H152.462V316.048Z" fill="white"/>
<path d="M162.706 316.048H152.155V326.599H162.706V316.048Z" fill="white"/>
<path d="M172.949 316.048H162.398V326.599H172.949V316.048Z" fill="white"/>
<path d="M193.436 316.048H182.885V326.599H193.436V316.048Z" fill="white"/>
<path d="M213.922 316.048H203.372V326.599H213.922V316.048Z" fill="white"/>
<path d="M244.652 316.048H234.102V326.599H244.652V316.048Z" fill="white"/>
<path d="M254.896 316.048H244.345V326.599H254.896V316.048Z" fill="white"/>
<path d="M265.139 316.048H254.588V326.599H265.139V316.048Z" fill="white"/>
<path d="M275.382 316.048H264.832V326.599H275.382V316.048Z" fill="white"/>
<path d="M285.626 316.048H275.075V326.599H285.626V316.048Z" fill="white"/>
<path d="M295.869 316.048H285.318V326.599H295.869V316.048Z" fill="white"/>
<path d="M306.112 316.048H295.562V326.599H306.112V316.048Z" fill="white"/>
<path d="M316.356 316.048H305.805V326.599H316.356V316.048Z" fill="white"/>
<path d="M326.599 316.048H316.048V326.599H326.599V316.048Z" fill="white"/>
<path d="M336.842 316.048H326.292V326.599H336.842V316.048Z" fill="white"/>
<path d="M162.706 326.292H152.155V336.843H162.706V326.292Z" fill="white"/>
<path d="M183.192 326.292H172.642V336.843H183.192V326.292Z" fill="white"/>
<path d="M203.679 326.292H193.128V336.843H203.679V326.292Z" fill="white"/>
<path d="M234.409 326.292H223.858V336.843H234.409V326.292Z" fill="white"/>
<path d="M244.652 326.292H234.102V336.843H244.652V326.292Z" fill="white"/>
<path d="M254.896 326.292H244.345V336.843H254.896V326.292Z" fill="white"/>
<path d="M285.626 326.292H275.075V336.843H285.626V326.292Z" fill="white"/>
<path d="M306.112 326.292H295.562V336.843H306.112V326.292Z" fill="white"/>
<path d="M336.842 326.292H326.292V336.843H336.842V326.292Z" fill="white"/>
<path d="M152.462 336.535H141.912V347.085H152.462V336.535Z" fill="white"/>
<path d="M162.706 336.535H152.155V347.085H162.706V336.535Z" fill="white"/>
<path d="M172.949 336.535H162.398V347.085H172.949V336.535Z" fill="white"/>
<path d="M193.436 336.535H182.885V347.085H193.436V336.535Z" fill="white"/>
<path d="M203.679 336.535H193.128V347.085H203.679V336.535Z" fill="white"/>
<path d="M244.652 336.535H234.102V347.085H244.652V336.535Z" fill="white"/>
<path d="M254.896 336.535H244.345V347.085H254.896V336.535Z" fill="white"/>
<path d="M275.382 336.535H264.832V347.085H275.382V336.535Z" fill="white"/>
<path d="M306.112 336.535H295.562V347.085H306.112V336.535Z" fill="white"/>
<path d="M326.599 336.535H316.048V347.085H326.599V336.535Z" fill="white"/>
</mask>
<g mask="url(#mask0_3940_11437)">
<path d="M367.265 29.2351H29.235V367.265H367.265V29.2351Z" fill="black"/>
</g>
<path d="M72.7692 121.425H98.8897C111.182 121.425 121.425 111.182 121.425 98.8899V72.7694C121.425 59.9653 111.182 49.7219 98.3775 49.7219H72.257C59.965 49.7219 49.7217 59.9653 49.7217 72.2573V98.3778C49.7217 111.182 59.965 121.425 72.7692 121.425ZM111.182 74.3059V96.8413C111.182 104.524 104.524 111.182 96.841 111.182H74.3057C66.111 111.182 59.965 105.036 59.965 96.8413V74.3059C59.965 66.6234 66.6232 59.9653 74.3057 59.9653H96.841C105.036 59.9653 111.182 66.1113 111.182 74.3059Z" fill="black"/>
<path d="M100.938 78.9153V92.7438C100.938 96.8412 96.841 100.938 92.2315 100.938H78.9152C73.7935 100.938 70.2084 97.3533 70.2084 92.2317V78.9153C70.2084 74.3058 74.3057 70.2085 78.9152 70.2085H92.7437C97.3532 70.2085 100.938 73.7937 100.938 78.9153Z" fill="black"/>
<path d="M298.122 121.425H324.243C336.535 121.425 346.778 111.182 346.778 98.8899V72.7694C346.778 59.9653 336.535 49.7219 323.731 49.7219H297.61C285.318 49.7219 275.075 59.9653 275.075 72.2573V98.3778C275.075 111.182 285.318 121.425 298.122 121.425ZM336.535 74.3059V96.8413C336.535 104.524 329.877 111.182 322.194 111.182H299.659C291.464 111.182 285.318 105.036 285.318 96.8413V74.3059C285.318 66.6234 291.976 59.9653 299.659 59.9653H322.194C330.389 59.9653 336.535 66.1113 336.535 74.3059Z" fill="black"/>
<path d="M326.292 78.9153V92.7438C326.292 96.8412 322.194 100.938 317.585 100.938H304.269C299.147 100.938 295.562 97.3533 295.562 92.2317V78.9153C295.562 74.3058 299.659 70.2085 304.269 70.2085H318.097C322.707 70.2085 326.292 73.7937 326.292 78.9153Z" fill="black"/>
<path d="M72.7692 346.779H98.8897C111.182 346.779 121.425 336.535 121.425 324.243V298.123C121.425 285.319 111.182 275.075 98.3775 275.075H72.257C59.965 275.075 49.7217 285.319 49.7217 297.611V323.731C49.7217 336.535 59.965 346.779 72.7692 346.779ZM111.182 299.659V322.195C111.182 329.877 104.524 336.535 96.841 336.535H74.3057C66.111 336.535 59.965 330.389 59.965 322.195V299.659C59.965 291.977 66.6232 285.319 74.3057 285.319H96.841C105.036 285.319 111.182 291.465 111.182 299.659Z" fill="black"/>
<path d="M100.938 304.268V318.096C100.938 322.194 96.841 326.291 92.2315 326.291H78.9152C73.7935 326.291 70.2084 322.706 70.2084 317.584V304.268C70.2084 299.658 74.3057 295.561 78.9152 295.561H92.7437C97.3532 295.561 100.938 299.146 100.938 304.268Z" fill="black"/>
</g>
<defs>
<clipPath id="clip0_3940_11437">
<rect width="338.03" height="338.03" fill="white" transform="translate(29.235 29.2351)"/>
</clipPath>
</defs>
</svg>
