<svg width="271" height="214" viewBox="0 0 271 214" fill="none" xmlns="http://www.w3.org/2000/svg">
<g clip-path="url(#clip0_3940_11118)">
<rect x="0.5" width="270" height="214" rx="16" fill="#E7FBCF"/>
<g clip-path="url(#clip1_3940_11118)">
<path d="M43.5 59.3301C43.5 46.4452 53.9452 36 66.8301 36H204.624C217.508 36 227.954 46.4452 227.954 59.3301V225H43.5V59.3301Z" fill="#1E1E1E"/>
<path d="M49.3325 57.872C49.3325 49.8189 55.8608 43.2906 63.9138 43.2906H207.54C215.593 43.2906 222.121 49.8189 222.121 57.872V225.371H49.3325V57.872Z" fill="white"/>
<path d="M66.5369 52.4585C66.7794 52.4601 67.0154 52.503 67.2448 52.5872C67.4758 52.6697 67.6837 52.805 67.8685 52.9931C68.0533 53.1796 68.2001 53.4295 68.309 53.743C68.4179 54.0565 68.4724 54.4443 68.4724 54.9063C68.474 55.3419 68.4278 55.7313 68.3338 56.0745C68.2414 56.4161 68.1085 56.7048 67.9353 56.9408C67.762 57.1767 67.5533 57.3566 67.3091 57.4804C67.0649 57.6041 66.7902 57.666 66.4849 57.666C66.1648 57.666 65.881 57.6033 65.6335 57.4779C65.3876 57.3525 65.1888 57.1809 65.037 56.9631C64.8852 56.7453 64.792 56.4961 64.7573 56.2156H65.6607C65.7069 56.4169 65.801 56.577 65.9429 56.6958C66.0864 56.8129 66.2671 56.8715 66.4849 56.8715C66.8364 56.8715 67.107 56.7189 67.2967 56.4136C67.4865 56.1084 67.5814 55.6843 67.5814 55.1414H67.5467C67.4659 55.2866 67.3611 55.412 67.2324 55.5176C67.1037 55.6216 66.9576 55.7016 66.7943 55.7577C66.6326 55.8138 66.461 55.8419 66.2795 55.8419C65.9825 55.8419 65.7152 55.7709 65.4776 55.629C65.2416 55.4871 65.0543 55.2924 64.9157 55.0449C64.7788 54.7974 64.7095 54.5144 64.7078 54.196C64.7078 53.866 64.7837 53.5698 64.9355 53.3074C65.089 53.0434 65.3027 52.8355 65.5766 52.6837C65.8505 52.5303 66.1706 52.4552 66.5369 52.4585ZM66.5394 53.201C66.3612 53.201 66.2003 53.2447 66.0567 53.3322C65.9148 53.418 65.8026 53.5351 65.7201 53.6836C65.6393 53.8305 65.5988 53.9947 65.5988 54.1762C65.6005 54.356 65.6409 54.5194 65.7201 54.6662C65.801 54.8131 65.9107 54.9294 66.0493 55.0152C66.1896 55.101 66.3496 55.1439 66.5295 55.1439C66.6631 55.1439 66.7877 55.1183 66.9032 55.0672C67.0187 55.016 67.1193 54.9451 67.2052 54.8543C67.2926 54.7619 67.3603 54.6572 67.4081 54.54C67.4576 54.4229 67.4815 54.2991 67.4799 54.1687C67.4799 53.9955 67.4386 53.8354 67.3561 53.6886C67.2753 53.5417 67.1639 53.4238 67.022 53.3347C66.8817 53.2456 66.7209 53.201 66.5394 53.201ZM69.8584 56.9878C69.7082 56.9878 69.5795 56.935 69.4723 56.8294C69.365 56.7222 69.3122 56.5935 69.3139 56.4433C69.3122 56.2948 69.365 56.1678 69.4723 56.0622C69.5795 55.9566 69.7082 55.9038 69.8584 55.9038C70.0036 55.9038 70.1298 55.9566 70.2371 56.0622C70.346 56.1678 70.4013 56.2948 70.4029 56.4433C70.4013 56.544 70.3749 56.6355 70.3237 56.718C70.2742 56.8005 70.2082 56.8665 70.1257 56.916C70.0448 56.9639 69.9557 56.9878 69.8584 56.9878ZM69.8584 54.4757C69.7082 54.4757 69.5795 54.4229 69.4723 54.3172C69.365 54.21 69.3122 54.0813 69.3139 53.9311C69.3122 53.7826 69.365 53.6556 69.4723 53.55C69.5795 53.4427 69.7082 53.3891 69.8584 53.3891C70.0036 53.3891 70.1298 53.4427 70.2371 53.55C70.346 53.6556 70.4013 53.7826 70.4029 53.9311C70.4013 54.0301 70.3749 54.1209 70.3237 54.2034C70.2742 54.2859 70.2082 54.3519 70.1257 54.4014C70.0448 54.4509 69.9557 54.4757 69.8584 54.4757ZM71.2265 56.6562V55.926L73.3773 52.5278H73.9861V53.5673H73.6149L72.167 55.8617V55.9013H75.1692V56.6562H71.2265ZM73.6446 57.5967V56.4334L73.6545 56.1067V52.5278H74.5208V57.5967H73.6446ZM77.9536 52.5278V57.5967H77.0354V53.4213H77.0057L75.8202 54.1786V53.3371L77.08 52.5278H77.9536Z" fill="black"/>
<rect opacity="0.35" x="200.848" y="52.7124" width="9.8396" height="4.9198" rx="1.55794" stroke="black" stroke-width="0.409984"/>
<path opacity="0.4" d="M211.303 54.4673V56.1382C211.633 55.9966 211.847 55.6674 211.847 55.3027C211.847 54.938 211.633 54.6088 211.303 54.4673Z" fill="black"/>
<rect x="201.463" y="53.327" width="8.60965" height="3.68985" rx="1.02496" fill="black"/>
<path fill-rule="evenodd" clip-rule="evenodd" d="M194.195 53.7802C195.214 53.7802 196.195 54.1583 196.934 54.8362C196.99 54.8885 197.079 54.8878 197.133 54.8347L197.665 54.3167C197.693 54.2897 197.709 54.2532 197.708 54.2152C197.708 54.1772 197.692 54.1409 197.664 54.1142C195.724 52.3207 192.664 52.3207 190.725 54.1142C190.697 54.1408 190.681 54.1772 190.681 54.2152C190.68 54.2532 190.696 54.2897 190.723 54.3167L191.256 54.8347C191.31 54.8879 191.399 54.8886 191.455 54.8362C192.194 54.1582 193.175 53.7802 194.195 53.7802ZM194.193 55.5104C194.75 55.5104 195.286 55.7202 195.699 56.0991C195.755 56.1528 195.843 56.1517 195.897 56.0964L196.425 55.5555C196.452 55.5272 196.468 55.4887 196.467 55.4487C196.467 55.4087 196.451 55.3705 196.423 55.3427C195.166 54.1575 193.221 54.1575 191.965 55.3427C191.937 55.3705 191.92 55.4087 191.92 55.4487C191.92 55.4887 191.935 55.5272 191.963 55.5555L192.491 56.0964C192.545 56.1517 192.633 56.1528 192.689 56.0991C193.101 55.7204 193.637 55.5107 194.193 55.5104ZM195.228 56.6557C195.229 56.6989 195.214 56.7406 195.186 56.7708L194.294 57.7772C194.268 57.8068 194.232 57.8234 194.195 57.8234C194.158 57.8234 194.122 57.8068 194.096 57.7772L193.203 56.7708C193.176 56.7405 193.16 56.6989 193.161 56.6557C193.162 56.6125 193.179 56.5716 193.208 56.5426C193.777 56.004 194.612 56.004 195.182 56.5426C195.211 56.5716 195.227 56.6125 195.228 56.6557Z" fill="black"/>
<path fill-rule="evenodd" clip-rule="evenodd" d="M187.606 53.1972C187.606 52.9377 187.41 52.7273 187.169 52.7273H186.731C186.49 52.7273 186.294 52.9377 186.294 53.1972V57.27C186.294 57.5295 186.49 57.7399 186.731 57.7399H187.169C187.41 57.7399 187.606 57.5295 187.606 57.27V53.1972ZM184.558 53.7298H184.995C185.237 53.7298 185.433 53.9453 185.433 54.211V57.2587C185.433 57.5245 185.237 57.7399 184.995 57.7399H184.558C184.317 57.7399 184.121 57.5245 184.121 57.2587V54.211C184.121 53.9453 184.317 53.7298 184.558 53.7298ZM182.782 54.8159H182.345C182.103 54.8159 181.907 55.0341 181.907 55.3032V57.2526C181.907 57.5217 182.103 57.7399 182.345 57.7399H182.782C183.024 57.7399 183.219 57.5217 183.219 57.2526V55.3032C183.219 55.0341 183.024 54.8159 182.782 54.8159ZM180.609 55.8184H180.172C179.93 55.8184 179.734 56.0335 179.734 56.2988V57.2595C179.734 57.5249 179.93 57.7399 180.172 57.7399H180.609C180.85 57.7399 181.046 57.5249 181.046 57.2595V56.2988C181.046 56.0335 180.85 55.8184 180.609 55.8184Z" fill="black"/>
<path d="M102.554 43.2112H168.899V53.4181C168.899 57.4446 165.635 60.7088 161.608 60.7088H109.845C105.818 60.7088 102.554 57.4446 102.554 53.4181V43.2112Z" fill="#1E1E1E"/>
<g filter="url(#filter0_d_3940_11118)">
<rect x="114.219" y="49.0436" width="31.3498" height="5.83253" rx="2.91626" fill="#343434"/>
</g>
<g filter="url(#filter1_d_3940_11118)">
<rect x="151.401" y="49.0436" width="5.83253" height="5.83253" rx="2.91626" fill="#343434"/>
</g>
<path d="M119.133 84.7186V78.7252H121.936C123.242 78.7252 123.947 79.6073 123.947 80.6558C123.947 81.6992 123.226 82.5813 121.936 82.5813H120.408V84.7186H119.133ZM122.652 80.6558C122.652 80.1517 122.264 79.8493 121.764 79.8493H120.418V81.4573H121.759C122.264 81.4573 122.652 81.1498 122.652 80.6558Z" fill="#070707"/>
<path d="M127.159 84.7186C127.124 84.6027 127.098 84.4716 127.088 84.3254C126.952 84.4817 126.766 84.6077 126.539 84.6984C126.312 84.7892 126.05 84.8396 125.747 84.8396C125.238 84.8396 124.865 84.7287 124.628 84.5019C124.391 84.275 124.275 83.9827 124.275 83.6248C124.275 83.3072 124.326 83.0552 124.426 82.8636C124.527 82.6771 124.668 82.5259 124.85 82.4201C125.031 82.3142 125.243 82.2336 125.49 82.1832C125.737 82.1327 126.009 82.0874 126.302 82.042C126.594 82.0017 126.791 81.9462 126.897 81.8757C126.997 81.8051 127.048 81.6942 127.048 81.5379C127.048 81.3918 126.982 81.2809 126.846 81.2002C126.71 81.1196 126.529 81.0792 126.302 81.0792C126.035 81.0792 125.838 81.1397 125.722 81.2607C125.606 81.3817 125.53 81.5379 125.5 81.7345H124.411C124.416 81.5077 124.457 81.296 124.522 81.1044C124.593 80.9129 124.704 80.7466 124.855 80.6105C125.006 80.4744 125.208 80.3685 125.45 80.2929C125.697 80.2173 125.994 80.182 126.347 80.182C126.695 80.182 126.987 80.2223 127.229 80.2979C127.471 80.3736 127.663 80.4895 127.814 80.6357C127.96 80.7818 128.066 80.9633 128.132 81.1851C128.197 81.4018 128.233 81.6488 128.233 81.9261V84.7186H127.159ZM127.078 82.5511C127.018 82.6116 126.932 82.657 126.816 82.6973C126.7 82.7326 126.539 82.7729 126.322 82.8132C125.984 82.8788 125.757 82.9645 125.631 83.0653C125.505 83.1661 125.445 83.3123 125.445 83.5038C125.445 83.8314 125.631 83.9978 126.009 83.9978C126.161 83.9978 126.297 83.9726 126.428 83.9222C126.559 83.8718 126.67 83.8012 126.761 83.7155C126.851 83.6298 126.927 83.529 126.987 83.408C127.043 83.2921 127.073 83.1661 127.073 83.035L127.078 82.5511Z" fill="#070707"/>
<path d="M128.994 85.8326L129.508 85.016C129.821 85.394 130.355 85.5452 130.814 85.5452C131.55 85.5452 131.983 85.0412 131.983 84.4313V83.9826C131.686 84.3052 131.167 84.6379 130.456 84.6379C129.503 84.6379 129.054 84.1187 129.054 83.2719V80.3786H130.194V82.8233C130.194 83.4231 130.506 83.6248 130.995 83.6248C131.434 83.6248 131.787 83.3828 131.983 83.1308V80.3786H133.123V84.4313C133.123 85.7368 132.195 86.4778 130.814 86.4778C130.083 86.4778 129.498 86.2711 128.994 85.8326ZM136.778 84.7186V83.4786H133.909V82.4704L136.289 78.7252H138.048V82.3545H138.82V83.4786H138.048V84.7186H136.778ZM136.778 79.8543L135.16 82.3545H136.778V79.8543ZM144.859 84.7186V80.3937L143.171 84.7186H142.611L140.922 80.3937V84.7186H139.647V78.7252H141.436L142.893 82.4704L144.35 78.7252H146.15V84.7186H144.859ZM147.027 82.541C147.027 81.2808 147.96 80.2677 149.276 80.2677C150.582 80.2677 151.449 81.2405 151.449 82.6469V82.914H148.222C148.303 83.4433 148.736 83.8869 149.472 83.8869C149.84 83.8869 150.345 83.7356 150.622 83.4634L151.136 84.2195C150.703 84.6127 150.022 84.8194 149.346 84.8194C148.025 84.8244 147.027 83.9373 147.027 82.541ZM149.276 81.2052C148.565 81.2052 148.262 81.6992 148.217 82.1327H150.355C150.314 81.7143 150.027 81.2052 149.276 81.2052ZM158.754 84.7186L158.376 83.7054H155.805L155.426 84.7186H153.979L156.288 78.7252H157.887L160.196 84.7186H158.754ZM157.095 80.0005L156.162 82.5813H158.033L157.095 80.0005ZM161.874 84.1591V86.3719H160.735V80.3786H161.874V80.928C162.207 80.5046 162.681 80.2727 163.215 80.2727C164.33 80.2727 165.141 81.0994 165.141 82.546C165.141 83.9927 164.335 84.8295 163.215 84.8295C162.701 84.8244 162.232 84.6127 161.874 84.1591ZM163.962 82.541C163.962 81.795 163.513 81.2808 162.858 81.2808C162.49 81.2808 162.076 81.4875 161.879 81.7748V83.3021C162.066 83.5794 162.49 83.8062 162.858 83.8062C163.508 83.8113 163.962 83.2971 163.962 82.541ZM167.113 84.1591V86.3719H165.973V80.3786H167.113V80.928C167.445 80.5046 167.919 80.2727 168.454 80.2727C169.568 80.2727 170.379 81.0994 170.379 82.546C170.379 83.9927 169.573 84.8295 168.454 84.8295C167.939 84.8244 167.476 84.6127 167.113 84.1591ZM169.2 82.541C169.2 81.795 168.751 81.2808 168.096 81.2808C167.728 81.2808 167.314 81.4875 167.118 81.7748V83.3021C167.304 83.5794 167.728 83.8062 168.096 83.8062C168.751 83.8113 169.2 83.2971 169.2 82.541Z" fill="#070707"/>
<g opacity="0.78">
<path d="M111.848 88.9276H105.057C102.859 88.9276 101.074 87.1432 101.074 84.9455V78.1607C101.074 75.963 102.859 74.1786 105.057 74.1786H111.848C114.046 74.1786 115.831 75.963 115.831 78.1607V84.9505C115.831 87.1482 114.046 88.9276 111.848 88.9276Z" fill="#7AC52D"/>
<path opacity="0.78" d="M103.227 84.9354V80.9079C103.227 80.6962 103.363 80.5097 103.56 80.4441L105.309 79.8544V81.9967C105.309 82.2638 105.475 82.5007 105.722 82.5965C106.322 82.8233 107.386 83.2266 107.673 83.3223C107.996 83.4282 107.956 83.7962 107.921 83.9424C107.9 83.9524 107.885 83.9625 107.865 83.9726L103.882 85.3991C103.63 85.4898 103.348 85.3588 103.257 85.1067C103.237 85.0513 103.227 84.9959 103.227 84.9354Z" fill="white"/>
<path opacity="0.53" d="M105.309 79.8547V78.317C105.309 77.9641 105.596 77.6768 105.949 77.6768C106.025 77.6768 106.095 77.6919 106.166 77.7171L107.931 78.3523L107.961 78.4128C108.057 78.675 107.926 78.9623 107.663 79.0581C107.658 79.0581 107.653 79.0632 107.643 79.0632L105.309 79.8547Z" fill="white"/>
<path d="M107.931 78.3523L107.961 78.4128C108.057 78.6749 107.926 78.9622 107.663 79.058C107.658 79.058 107.653 79.063 107.643 79.063L105.309 79.8544V81.9967C105.309 82.2639 105.475 82.5008 105.722 82.5965C106.322 82.8234 107.386 83.2266 107.673 83.3224C107.996 83.4282 107.956 83.7962 107.921 83.9424C108.183 83.7912 108.349 83.524 108.369 83.2216V79.0277C108.369 78.8362 108.294 78.6547 108.168 78.5136C108.102 78.443 108.021 78.3825 107.931 78.3523Z" fill="white"/>
<path opacity="0.78" d="M113.678 78.1708V82.1983C113.678 82.41 113.547 82.5965 113.345 82.662L111.596 83.2518V81.1095C111.596 80.8424 111.429 80.6054 111.182 80.5097C110.587 80.2828 109.519 79.8796 109.231 79.7838C108.909 79.678 108.949 79.31 108.984 79.1638C109.004 79.1537 109.02 79.1437 109.04 79.1336L113.022 77.7071C113.28 77.6163 113.557 77.7474 113.648 78.0045C113.668 78.0549 113.678 78.1154 113.678 78.1708Z" fill="white"/>
<path d="M108.531 80.4592V83.9625C108.525 83.3475 108.531 81.427 108.531 80.4592Z" fill="white"/>
<path opacity="0.53" d="M111.596 83.2518V84.7895C111.596 85.1424 111.308 85.4298 110.955 85.4298C110.88 85.4298 110.809 85.4146 110.739 85.3894L108.979 84.7542L108.949 84.6937C108.853 84.4315 108.984 84.1442 109.246 84.0484C109.251 84.0484 109.257 84.0433 109.267 84.0433L111.596 83.2518Z" fill="white"/>
<path d="M108.979 84.7539L108.949 84.6934C108.853 84.4313 108.984 84.144 109.246 84.0482C109.251 84.0482 109.257 84.0432 109.267 84.0432L111.601 83.2518V81.1095C111.601 80.8424 111.434 80.6055 111.187 80.5097C110.593 80.2828 109.524 79.8796 109.236 79.7838C108.914 79.678 108.954 79.31 108.989 79.1638C108.727 79.315 108.561 79.5872 108.541 79.8846V84.0734C108.541 84.265 108.611 84.4464 108.742 84.5876C108.803 84.6632 108.888 84.7186 108.979 84.7539Z" fill="white"/>
</g>
<path d="M58.892 109.561C58.7753 109.392 58.6178 109.269 58.4195 109.193C58.2271 109.112 58.0229 109.071 57.8071 109.071C57.6788 109.071 57.5534 109.085 57.4309 109.115C57.3143 109.144 57.2064 109.19 57.1072 109.255C57.0139 109.319 56.9381 109.403 56.8798 109.508C56.8214 109.607 56.7923 109.727 56.7923 109.867C56.7923 110.077 56.8652 110.237 57.011 110.348C57.1568 110.459 57.3376 110.555 57.5534 110.637C57.7692 110.718 58.0054 110.797 58.2621 110.873C58.5187 110.949 58.7549 111.054 58.9707 111.188C59.1865 111.322 59.3673 111.5 59.5131 111.722C59.659 111.943 59.7319 112.238 59.7319 112.605C59.7319 112.938 59.6706 113.229 59.5481 113.48C59.4257 113.725 59.2594 113.929 59.0495 114.093C58.8453 114.256 58.6062 114.378 58.3321 114.46C58.0579 114.542 57.7692 114.583 57.4659 114.583C57.081 114.583 56.7106 114.518 56.3548 114.39C55.999 114.262 55.6928 114.046 55.4362 113.743L56.2673 112.938C56.4015 113.142 56.5765 113.302 56.7923 113.419C57.0139 113.53 57.2472 113.585 57.4922 113.585C57.6205 113.585 57.7488 113.568 57.8771 113.533C58.0054 113.498 58.1221 113.445 58.2271 113.375C58.3321 113.305 58.4166 113.218 58.4808 113.113C58.5449 113.002 58.577 112.877 58.577 112.737C58.577 112.509 58.5041 112.334 58.3583 112.212C58.2125 112.089 58.0317 111.987 57.8159 111.905C57.6001 111.818 57.3639 111.736 57.1072 111.66C56.8506 111.585 56.6144 111.483 56.3986 111.354C56.1828 111.22 56.002 111.045 55.8561 110.829C55.7103 110.608 55.6374 110.313 55.6374 109.946C55.6374 109.625 55.7016 109.348 55.8299 109.115C55.964 108.881 56.1361 108.689 56.3461 108.537C56.5619 108.38 56.8068 108.263 57.081 108.187C57.3551 108.111 57.6351 108.073 57.9209 108.073C58.2475 108.073 58.5624 108.123 58.8657 108.222C59.1749 108.321 59.4519 108.485 59.6969 108.712L58.892 109.561ZM60.8011 110.226H61.851V114.425H60.8011V110.226ZM60.6524 108.8C60.6524 108.63 60.7136 108.485 60.8361 108.362C60.9644 108.234 61.1248 108.17 61.3173 108.17C61.5098 108.17 61.6702 108.231 61.7985 108.353C61.9326 108.47 61.9997 108.619 61.9997 108.8C61.9997 108.98 61.9326 109.132 61.7985 109.255C61.6702 109.371 61.5098 109.429 61.3173 109.429C61.1248 109.429 60.9644 109.368 60.8361 109.246C60.7136 109.117 60.6524 108.969 60.6524 108.8ZM67.3782 110.226V114.049C67.3782 114.428 67.3315 114.769 67.2382 115.072C67.1449 115.382 66.9991 115.641 66.8007 115.851C66.6083 116.067 66.3633 116.233 66.0658 116.35C65.7684 116.466 65.4155 116.525 65.0072 116.525C64.6165 116.525 64.2461 116.475 63.8961 116.376C63.5462 116.277 63.2225 116.096 62.925 115.834L63.5549 114.976C63.7649 115.169 63.9836 115.317 64.2111 115.422C64.4386 115.527 64.701 115.58 64.9985 115.58C65.2493 115.58 65.4593 115.545 65.6284 115.475C65.8034 115.405 65.9404 115.309 66.0396 115.186C66.1446 115.064 66.2175 114.915 66.2583 114.74C66.305 114.571 66.3283 114.381 66.3283 114.171V113.865H66.3108C66.1592 114.069 65.9579 114.224 65.7071 114.329C65.4563 114.428 65.1997 114.478 64.9373 114.478C64.6223 114.478 64.3365 114.422 64.0799 114.311C63.8232 114.195 63.6016 114.04 63.415 113.848C63.2342 113.655 63.0942 113.428 62.995 113.165C62.8959 112.903 62.8463 112.623 62.8463 112.325C62.8463 112.016 62.893 111.728 62.9863 111.459C63.0796 111.191 63.2167 110.958 63.3975 110.759C63.5783 110.561 63.7941 110.406 64.0449 110.296C64.3015 110.179 64.5931 110.121 64.9198 110.121C65.2172 110.121 65.4943 110.179 65.7509 110.296C66.0075 110.412 66.2117 110.599 66.3633 110.856H66.3808V110.226H67.3782ZM65.1385 111.066C64.9518 111.066 64.7827 111.098 64.631 111.162C64.4794 111.22 64.3482 111.305 64.2374 111.415C64.1324 111.52 64.0478 111.652 63.9836 111.809C63.9253 111.961 63.8961 112.13 63.8961 112.317C63.8961 112.486 63.9253 112.643 63.9836 112.789C64.0478 112.935 64.1353 113.063 64.2461 113.174C64.3569 113.285 64.4881 113.372 64.6398 113.436C64.7914 113.501 64.9548 113.533 65.1297 113.533C65.3222 113.533 65.4943 113.501 65.6459 113.436C65.8034 113.372 65.9346 113.288 66.0396 113.183C66.1504 113.072 66.235 112.941 66.2933 112.789C66.3516 112.637 66.3808 112.474 66.3808 112.299C66.3808 111.932 66.27 111.634 66.0483 111.407C65.8267 111.179 65.5234 111.066 65.1385 111.066ZM68.567 110.226H69.5643V110.899H69.5818C69.681 110.689 69.8326 110.509 70.0368 110.357C70.2409 110.199 70.518 110.121 70.8679 110.121C71.1479 110.121 71.3841 110.167 71.5766 110.261C71.7749 110.354 71.9353 110.476 72.0577 110.628C72.1802 110.78 72.2677 110.955 72.3202 111.153C72.3727 111.351 72.3989 111.558 72.3989 111.774V114.425H71.3491V112.299C71.3491 112.182 71.3433 112.054 71.3316 111.914C71.3199 111.768 71.2878 111.634 71.2354 111.512C71.1887 111.383 71.1129 111.278 71.0079 111.197C70.9029 111.109 70.76 111.066 70.5792 111.066C70.4042 111.066 70.2555 111.095 70.133 111.153C70.0164 111.211 69.9172 111.29 69.8355 111.389C69.7597 111.488 69.7043 111.602 69.6693 111.73C69.6343 111.859 69.6168 111.993 69.6168 112.133V114.425H68.567V110.226ZM81.2362 112.15C81.2362 112.524 81.1721 112.862 81.0438 113.165C80.9155 113.463 80.7405 113.716 80.5188 113.926C80.2972 114.136 80.0347 114.3 79.7315 114.416C79.4282 114.527 79.0986 114.583 78.7428 114.583C78.3871 114.583 78.0575 114.527 77.7542 114.416C77.4509 114.3 77.1856 114.136 76.9581 113.926C76.7365 113.716 76.5615 113.463 76.4332 113.165C76.3107 112.862 76.2494 112.524 76.2494 112.15V108.231H77.3518V112.115C77.3518 112.267 77.3751 112.427 77.4218 112.597C77.4684 112.76 77.5443 112.912 77.6492 113.051C77.7601 113.191 77.903 113.308 78.0779 113.401C78.2587 113.489 78.4804 113.533 78.7428 113.533C79.0053 113.533 79.224 113.489 79.399 113.401C79.5798 113.308 79.7227 113.191 79.8277 113.051C79.9385 112.912 80.0172 112.76 80.0639 112.597C80.1106 112.427 80.1339 112.267 80.1339 112.115V108.231H81.2362V112.15ZM82.4933 110.226H83.4906V110.856H83.5081C83.6598 110.599 83.8639 110.412 84.1205 110.296C84.3772 110.179 84.6542 110.121 84.9517 110.121C85.2725 110.121 85.5612 110.179 85.8178 110.296C86.0744 110.406 86.2932 110.561 86.474 110.759C86.6548 110.958 86.7918 111.191 86.8852 111.459C86.9785 111.728 87.0251 112.016 87.0251 112.325C87.0251 112.634 86.9756 112.923 86.8764 113.191C86.7773 113.46 86.6373 113.693 86.4565 113.891C86.2815 114.09 86.0686 114.247 85.8178 114.364C85.567 114.475 85.2929 114.53 84.9954 114.53C84.7971 114.53 84.6221 114.51 84.4705 114.469C84.3188 114.428 84.1847 114.375 84.0681 114.311C83.9514 114.247 83.8522 114.18 83.7706 114.11C83.6889 114.034 83.6219 113.961 83.5694 113.891H83.5431V116.42H82.4933V110.226ZM85.9753 112.325C85.9753 112.162 85.9461 112.005 85.8878 111.853C85.8353 111.701 85.7537 111.567 85.6428 111.45C85.5378 111.334 85.4095 111.24 85.2579 111.17C85.1062 111.101 84.9342 111.066 84.7417 111.066C84.5492 111.066 84.3772 111.101 84.2255 111.17C84.0739 111.24 83.9427 111.334 83.8318 111.45C83.7268 111.567 83.6452 111.701 83.5869 111.853C83.5344 112.005 83.5081 112.162 83.5081 112.325C83.5081 112.489 83.5344 112.646 83.5869 112.798C83.6452 112.949 83.7268 113.084 83.8318 113.2C83.9427 113.317 84.0739 113.41 84.2255 113.48C84.3772 113.55 84.5492 113.585 84.7417 113.585C84.9342 113.585 85.1062 113.55 85.2579 113.48C85.4095 113.41 85.5378 113.317 85.6428 113.2C85.7537 113.084 85.8353 112.949 85.8878 112.798C85.9461 112.646 85.9753 112.489 85.9753 112.325Z" fill="#2B2B2B"/>
<path d="M55.8948 130.412H56.9053L60.033 135.08H60.049V130.412H60.8189V136.09H59.8405L56.6808 131.423H56.6647V136.09H55.8948V130.412ZM62.1093 132.754C62.3125 132.567 62.5477 132.428 62.815 132.337C63.0824 132.241 63.3497 132.193 63.617 132.193C63.895 132.193 64.1329 132.227 64.3308 132.297C64.5339 132.366 64.6997 132.46 64.828 132.578C64.9563 132.695 65.0499 132.832 65.1087 132.987C65.1728 133.136 65.2049 133.294 65.2049 133.46V135.401C65.2049 135.534 65.2076 135.657 65.2129 135.769C65.2183 135.882 65.2263 135.989 65.237 136.09H64.5954C64.5794 135.898 64.5714 135.705 64.5714 135.513H64.5553C64.3949 135.759 64.2051 135.932 63.9859 136.034C63.7667 136.136 63.5128 136.186 63.224 136.186C63.0476 136.186 62.8792 136.162 62.7188 136.114C62.5584 136.066 62.4167 135.994 62.2938 135.898C62.1761 135.801 62.0826 135.684 62.0131 135.545C61.9436 135.401 61.9088 135.235 61.9088 135.048C61.9088 134.802 61.9623 134.596 62.0692 134.43C62.1815 134.264 62.3312 134.131 62.5183 134.029C62.7108 133.922 62.9327 133.847 63.1839 133.805C63.4406 133.756 63.7132 133.732 64.002 133.732H64.5313V133.572C64.5313 133.476 64.5125 133.38 64.4751 133.283C64.4377 133.187 64.3816 133.102 64.3067 133.027C64.2319 132.946 64.1383 132.885 64.026 132.842C63.9137 132.794 63.7801 132.77 63.625 132.77C63.486 132.77 63.3631 132.783 63.2561 132.81C63.1545 132.837 63.061 132.872 62.9754 132.914C62.8899 132.952 62.8124 132.997 62.7429 133.051C62.6734 133.104 62.6065 133.155 62.5424 133.203L62.1093 132.754ZM64.1463 134.262C63.9752 134.262 63.7988 134.272 63.617 134.294C63.4406 134.31 63.2775 134.345 63.1278 134.398C62.9835 134.452 62.8632 134.526 62.7669 134.623C62.676 134.719 62.6306 134.842 62.6306 134.992C62.6306 135.211 62.7028 135.368 62.8471 135.465C62.9968 135.561 63.1973 135.609 63.4486 135.609C63.6464 135.609 63.8148 135.577 63.9538 135.513C64.0928 135.443 64.2051 135.355 64.2907 135.248C64.3762 135.141 64.4377 135.024 64.4751 134.895C64.5125 134.762 64.5313 134.631 64.5313 134.502V134.262H64.1463ZM66.2519 132.289H66.9256V132.882H66.9416C66.9577 132.829 66.9978 132.762 67.0619 132.682C67.1314 132.602 67.217 132.527 67.3186 132.457C67.4255 132.382 67.5484 132.321 67.6875 132.273C67.8318 132.219 67.9895 132.193 68.1606 132.193C68.444 132.193 68.6819 132.251 68.8744 132.369C69.0669 132.487 69.2246 132.663 69.3475 132.898C69.4705 132.663 69.6443 132.487 69.8688 132.369C70.0934 132.251 70.3206 132.193 70.5505 132.193C70.8446 132.193 71.0851 132.241 71.2723 132.337C71.4594 132.433 71.6064 132.562 71.7134 132.722C71.8203 132.877 71.8925 133.056 71.9299 133.259C71.9727 133.457 71.994 133.663 71.994 133.877V136.09H71.2723V133.973C71.2723 133.829 71.2616 133.69 71.2402 133.556C71.2242 133.422 71.1867 133.305 71.1279 133.203C71.0691 133.102 70.9862 133.021 70.8793 132.963C70.7724 132.898 70.6307 132.866 70.4543 132.866C70.1067 132.866 69.8581 132.973 69.7084 133.187C69.5587 133.401 69.4839 133.676 69.4839 134.013V136.09H68.7621V134.101C68.7621 133.92 68.7514 133.754 68.73 133.604C68.714 133.454 68.6766 133.326 68.6177 133.219C68.5643 133.107 68.4841 133.021 68.3772 132.963C68.2756 132.898 68.1366 132.866 67.9601 132.866C67.8318 132.866 67.7062 132.893 67.5832 132.946C67.4656 132.995 67.3613 133.069 67.2704 133.171C67.1795 133.273 67.1074 133.404 67.0539 133.564C67.0004 133.719 66.9737 133.903 66.9737 134.117V136.09H66.2519V132.289ZM73.6266 134.454C73.6266 134.62 73.6613 134.772 73.7308 134.911C73.8057 135.045 73.9019 135.16 74.0195 135.256C74.1372 135.352 74.2735 135.427 74.4285 135.481C74.5836 135.534 74.744 135.561 74.9097 135.561C75.1343 135.561 75.3294 135.51 75.4952 135.409C75.6609 135.302 75.8133 135.163 75.9523 134.992L76.4976 135.409C76.0966 135.927 75.5353 136.186 74.8135 136.186C74.5141 136.186 74.2414 136.136 73.9955 136.034C73.7549 135.932 73.549 135.793 73.378 135.617C73.2122 135.435 73.0839 135.224 72.993 134.983C72.9021 134.738 72.8567 134.473 72.8567 134.19C72.8567 133.906 72.9048 133.644 73.001 133.404C73.1026 133.158 73.2389 132.946 73.41 132.77C73.5865 132.588 73.795 132.447 74.0356 132.345C74.2762 132.243 74.5381 132.193 74.8215 132.193C75.1583 132.193 75.4417 132.251 75.6716 132.369C75.9068 132.487 76.0993 132.642 76.249 132.834C76.3987 133.021 76.5056 133.235 76.5698 133.476C76.6393 133.711 76.6741 133.952 76.6741 134.198V134.454H73.6266ZM75.9042 133.877C75.8988 133.716 75.8721 133.569 75.824 133.436C75.7812 133.302 75.7144 133.187 75.6235 133.091C75.5326 132.989 75.4176 132.912 75.2786 132.858C75.145 132.799 74.9872 132.77 74.8055 132.77C74.629 132.77 74.466 132.805 74.3163 132.874C74.1719 132.938 74.0489 133.024 73.9474 133.131C73.8458 133.238 73.7656 133.358 73.7068 133.492C73.6533 133.62 73.6266 133.748 73.6266 133.877H75.9042Z" fill="#474646"/>
<rect x="55.3473" y="144.105" width="160.759" height="26.6109" rx="7.10839" fill="white"/>
<rect x="55.3473" y="144.105" width="160.759" height="26.6109" rx="7.10839" stroke="#E0E0E0" stroke-width="0.364533"/>
<path d="M64.1573 158.943C64.1573 159.135 64.1279 159.328 64.0691 159.52C64.0156 159.707 63.9248 159.878 63.7964 160.033C63.6735 160.189 63.5077 160.314 63.2992 160.41C63.0961 160.507 62.8421 160.555 62.5373 160.555C62.1364 160.555 61.8022 160.453 61.5349 160.25C61.2676 160.047 61.0965 159.742 61.0216 159.336L61.6953 159.199C61.738 159.424 61.8289 159.603 61.9679 159.737C62.1123 159.865 62.3048 159.929 62.5454 159.929C62.7378 159.929 62.8956 159.894 63.0185 159.825C63.1415 159.755 63.2351 159.665 63.2992 159.552C63.3687 159.44 63.4168 159.312 63.4436 159.167C63.4703 159.018 63.4837 158.865 63.4837 158.71V154.732H64.1573V158.943ZM65.2434 158.534C65.2434 158.24 65.2942 157.972 65.3957 157.732C65.4973 157.491 65.6363 157.285 65.8128 157.114C65.9892 156.938 66.2004 156.802 66.4463 156.705C66.6923 156.609 66.9596 156.561 67.2483 156.561C67.537 156.561 67.8043 156.609 68.0503 156.705C68.2962 156.802 68.5074 156.938 68.6838 157.114C68.8603 157.285 68.9993 157.491 69.1009 157.732C69.2024 157.972 69.2532 158.24 69.2532 158.534C69.2532 158.828 69.2024 159.095 69.1009 159.336C68.9993 159.576 68.8603 159.785 68.6838 159.961C68.5074 160.132 68.2962 160.266 68.0503 160.362C67.8043 160.459 67.537 160.507 67.2483 160.507C66.9596 160.507 66.6923 160.459 66.4463 160.362C66.2004 160.266 65.9892 160.132 65.8128 159.961C65.6363 159.785 65.4973 159.576 65.3957 159.336C65.2942 159.095 65.2434 158.828 65.2434 158.534ZM65.917 158.534C65.917 158.732 65.9464 158.916 66.0052 159.087C66.0694 159.253 66.1603 159.4 66.2779 159.528C66.3955 159.651 66.5346 159.75 66.6949 159.825C66.8607 159.894 67.0451 159.929 67.2483 159.929C67.4515 159.929 67.6333 159.894 67.7936 159.825C67.9594 159.75 68.1011 159.651 68.2187 159.528C68.3363 159.4 68.4245 159.253 68.4833 159.087C68.5475 158.916 68.5796 158.732 68.5796 158.534C68.5796 158.336 68.5475 158.154 68.4833 157.988C68.4245 157.817 68.3363 157.67 68.2187 157.547C68.1011 157.419 67.9594 157.32 67.7936 157.251C67.6333 157.176 67.4515 157.138 67.2483 157.138C67.0451 157.138 66.8607 157.176 66.6949 157.251C66.5346 157.32 66.3955 157.419 66.2779 157.547C66.1603 157.67 66.0694 157.817 66.0052 157.988C65.9464 158.154 65.917 158.336 65.917 158.534ZM70.2216 154.347H70.8472V157.178H70.8632C70.906 157.104 70.9648 157.031 71.0396 156.962C71.1145 156.887 71.2027 156.82 71.3043 156.761C71.4112 156.703 71.5288 156.654 71.6571 156.617C71.7855 156.58 71.9218 156.561 72.0662 156.561C72.3121 156.561 72.5233 156.598 72.6997 156.673C72.8815 156.748 73.0312 156.852 73.1488 156.986C73.2664 157.12 73.352 157.283 73.4054 157.475C73.4643 157.662 73.4937 157.868 73.4937 158.093V160.41H72.8681V158.157C72.8681 157.841 72.7986 157.593 72.6596 157.411C72.5206 157.229 72.3041 157.138 72.01 157.138C71.8068 157.138 71.6304 157.173 71.4807 157.243C71.3364 157.312 71.2161 157.411 71.1198 157.539C71.0289 157.668 70.9594 157.82 70.9113 157.996C70.8685 158.173 70.8472 158.368 70.8472 158.582V160.41H70.2216V154.347ZM76.918 154.732H79.0993C79.2865 154.732 79.4843 154.754 79.6928 154.797C79.9013 154.839 80.1071 154.909 80.3103 155.005C80.5188 155.096 80.7166 155.216 80.9038 155.366C81.0962 155.516 81.2646 155.697 81.409 155.911C81.5534 156.12 81.6683 156.363 81.7539 156.641C81.8394 156.914 81.8822 157.224 81.8822 157.571C81.8822 157.919 81.8394 158.232 81.7539 158.51C81.6683 158.782 81.5534 159.026 81.409 159.24C81.2646 159.448 81.0962 159.627 80.9038 159.777C80.7166 159.927 80.5188 160.05 80.3103 160.146C80.1071 160.237 79.9013 160.303 79.6928 160.346C79.4843 160.389 79.2865 160.41 79.0993 160.41H76.918V154.732ZM77.5916 159.785H78.8748C79.2009 159.785 79.503 159.742 79.781 159.657C80.059 159.571 80.2996 159.44 80.5028 159.264C80.7059 159.082 80.8663 158.852 80.984 158.574C81.1016 158.296 81.1604 157.962 81.1604 157.571C81.1604 157.181 81.1016 156.847 80.984 156.569C80.8663 156.291 80.7059 156.064 80.5028 155.887C80.2996 155.705 80.059 155.572 79.781 155.486C79.503 155.401 79.2009 155.358 78.8748 155.358H77.5916V159.785ZM82.6377 158.534C82.6377 158.24 82.6885 157.972 82.7901 157.732C82.8917 157.491 83.0307 157.285 83.2071 157.114C83.3835 156.938 83.5947 156.802 83.8407 156.705C84.0866 156.609 84.3539 156.561 84.6426 156.561C84.9314 156.561 85.1987 156.609 85.4446 156.705C85.6906 156.802 85.9017 156.938 86.0782 157.114C86.2546 157.285 86.3936 157.491 86.4952 157.732C86.5968 157.972 86.6476 158.24 86.6476 158.534C86.6476 158.828 86.5968 159.095 86.4952 159.336C86.3936 159.576 86.2546 159.785 86.0782 159.961C85.9017 160.132 85.6906 160.266 85.4446 160.362C85.1987 160.459 84.9314 160.507 84.6426 160.507C84.3539 160.507 84.0866 160.459 83.8407 160.362C83.5947 160.266 83.3835 160.132 83.2071 159.961C83.0307 159.785 82.8917 159.576 82.7901 159.336C82.6885 159.095 82.6377 158.828 82.6377 158.534ZM83.3114 158.534C83.3114 158.732 83.3408 158.916 83.3996 159.087C83.4637 159.253 83.5546 159.4 83.6723 159.528C83.7899 159.651 83.9289 159.75 84.0893 159.825C84.255 159.894 84.4395 159.929 84.6426 159.929C84.8458 159.929 85.0276 159.894 85.188 159.825C85.3537 159.75 85.4954 159.651 85.613 159.528C85.7307 159.4 85.8189 159.253 85.8777 159.087C85.9418 158.916 85.9739 158.732 85.9739 158.534C85.9739 158.336 85.9418 158.154 85.8777 157.988C85.8189 157.817 85.7307 157.67 85.613 157.547C85.4954 157.419 85.3537 157.32 85.188 157.251C85.0276 157.176 84.8458 157.138 84.6426 157.138C84.4395 157.138 84.255 157.176 84.0893 157.251C83.9289 157.32 83.7899 157.419 83.6723 157.547C83.5546 157.67 83.4637 157.817 83.3996 157.988C83.3408 158.154 83.3114 158.336 83.3114 158.534ZM90.9682 159.729C90.7436 160.017 90.4977 160.221 90.2304 160.338C89.9631 160.45 89.653 160.507 89.3001 160.507C89.006 160.507 88.7414 160.456 88.5061 160.354C88.2709 160.247 88.0704 160.106 87.9047 159.929C87.7443 159.753 87.6186 159.544 87.5277 159.304C87.4422 159.063 87.3994 158.806 87.3994 158.534C87.3994 158.245 87.4475 157.98 87.5438 157.74C87.64 157.494 87.7737 157.285 87.9448 157.114C88.1159 156.938 88.319 156.802 88.5543 156.705C88.7895 156.609 89.0461 156.561 89.3242 156.561C89.5861 156.561 89.8267 156.606 90.0459 156.697C90.2651 156.783 90.4523 156.911 90.6073 157.082C90.7677 157.248 90.8907 157.454 90.9762 157.7C91.0618 157.94 91.1045 158.216 91.1045 158.526V158.726H88.0731C88.0838 158.887 88.1212 159.042 88.1854 159.191C88.2549 159.336 88.3431 159.464 88.45 159.576C88.5569 159.683 88.6826 159.769 88.8269 159.833C88.9713 159.897 89.129 159.929 89.3001 159.929C89.5728 159.929 89.8027 159.881 89.9898 159.785C90.1769 159.689 90.3453 159.547 90.495 159.36L90.9682 159.729ZM90.4309 158.197C90.4202 157.876 90.3159 157.62 90.1181 157.427C89.9203 157.235 89.6476 157.138 89.3001 157.138C88.9526 157.138 88.6719 157.235 88.458 157.427C88.2442 157.62 88.1159 157.876 88.0731 158.197H90.4309Z" fill="#DADADA"/>
<path d="M55.8948 184.885H59.5598V185.607H56.6647V187.299H59.3594V188.021H56.6647V189.841H59.7042V190.563H55.8948V184.885ZM60.6131 186.762H61.2867V187.355H61.3028C61.3188 187.302 61.3589 187.235 61.4231 187.155C61.4926 187.075 61.5781 187 61.6797 186.93C61.7866 186.855 61.9096 186.794 62.0486 186.746C62.1929 186.692 62.3507 186.666 62.5218 186.666C62.8051 186.666 63.043 186.724 63.2355 186.842C63.428 186.96 63.5857 187.136 63.7087 187.371C63.8316 187.136 64.0054 186.96 64.23 186.842C64.4545 186.724 64.6817 186.666 64.9116 186.666C65.2057 186.666 65.4463 186.714 65.6334 186.81C65.8205 186.906 65.9676 187.035 66.0745 187.195C66.1814 187.35 66.2536 187.529 66.291 187.732C66.3338 187.93 66.3552 188.136 66.3552 188.35V190.563H65.6334V188.446C65.6334 188.302 65.6227 188.163 65.6013 188.029C65.5853 187.895 65.5479 187.778 65.4891 187.676C65.4302 187.575 65.3474 187.494 65.2404 187.436C65.1335 187.371 64.9918 187.339 64.8154 187.339C64.4679 187.339 64.2193 187.446 64.0696 187.66C63.9199 187.874 63.845 188.149 63.845 188.486V190.563H63.1232V188.574C63.1232 188.393 63.1125 188.227 63.0912 188.077C63.0751 187.927 63.0377 187.799 62.9789 187.692C62.9254 187.58 62.8452 187.494 62.7383 187.436C62.6367 187.371 62.4977 187.339 62.3213 187.339C62.1929 187.339 62.0673 187.366 61.9443 187.42C61.8267 187.468 61.7225 187.542 61.6316 187.644C61.5407 187.746 61.4685 187.877 61.415 188.037C61.3616 188.192 61.3348 188.377 61.3348 188.59V190.563H60.6131V186.762ZM67.4584 187.227C67.6616 187.04 67.8968 186.901 68.1641 186.81C68.4315 186.714 68.6988 186.666 68.9661 186.666C69.2441 186.666 69.482 186.7 69.6799 186.77C69.883 186.839 70.0488 186.933 70.1771 187.051C70.3054 187.168 70.399 187.305 70.4578 187.46C70.5219 187.609 70.554 187.767 70.554 187.933V189.874C70.554 190.007 70.5567 190.13 70.562 190.242C70.5674 190.355 70.5754 190.462 70.5861 190.563H69.9445C69.9285 190.371 69.9205 190.178 69.9205 189.986H69.9044C69.744 190.232 69.5542 190.406 69.335 190.507C69.1158 190.609 68.8618 190.659 68.5731 190.659C68.3967 190.659 68.2283 190.635 68.0679 190.587C67.9075 190.539 67.7658 190.467 67.6428 190.371C67.5252 190.275 67.4317 190.157 67.3622 190.018C67.2927 189.874 67.2579 189.708 67.2579 189.521C67.2579 189.275 67.3114 189.069 67.4183 188.903C67.5306 188.737 67.6803 188.604 67.8674 188.502C68.0599 188.395 68.2818 188.32 68.533 188.278C68.7897 188.229 69.0623 188.205 69.3511 188.205H69.8804V188.045C69.8804 187.949 69.8616 187.853 69.8242 187.756C69.7868 187.66 69.7307 187.575 69.6558 187.5C69.5809 187.42 69.4874 187.358 69.3751 187.315C69.2628 187.267 69.1292 187.243 68.9741 187.243C68.8351 187.243 68.7121 187.256 68.6052 187.283C68.5036 187.31 68.4101 187.345 68.3245 187.387C68.239 187.425 68.1615 187.47 68.092 187.524C68.0224 187.577 67.9556 187.628 67.8915 187.676L67.4584 187.227ZM69.4954 188.735C69.3243 188.735 69.1479 188.745 68.9661 188.767C68.7897 188.783 68.6266 188.818 68.4769 188.871C68.3325 188.925 68.2123 188.999 68.116 189.096C68.0251 189.192 67.9797 189.315 67.9797 189.465C67.9797 189.684 68.0519 189.841 68.1962 189.938C68.3459 190.034 68.5464 190.082 68.7977 190.082C68.9955 190.082 69.1639 190.05 69.3029 189.986C69.4419 189.916 69.5542 189.828 69.6398 189.721C69.7253 189.614 69.7868 189.497 69.8242 189.368C69.8616 189.235 69.8804 189.104 69.8804 188.975V188.735H69.4954ZM71.6572 186.762H72.3789V190.563H71.6572V186.762ZM71.4887 185.399C71.4887 185.254 71.5395 185.131 71.6411 185.03C71.748 184.923 71.8737 184.869 72.018 184.869C72.1624 184.869 72.2854 184.923 72.387 185.03C72.4939 185.131 72.5473 185.254 72.5473 185.399C72.5473 185.543 72.4939 185.669 72.387 185.775C72.2854 185.877 72.1624 185.928 72.018 185.928C71.8737 185.928 71.748 185.877 71.6411 185.775C71.5395 185.669 71.4887 185.543 71.4887 185.399ZM73.5838 184.5H74.3055V190.563H73.5838V184.5Z" fill="#474646"/>
<rect x="55.3473" y="198.578" width="160.759" height="26.6109" rx="7.10839" fill="white"/>
<rect x="55.3473" y="198.578" width="160.759" height="26.6109" rx="7.10839" stroke="#E0E0E0" stroke-width="0.364533"/>
<path d="M64.9433 214.202C64.7187 214.49 64.4728 214.694 64.2054 214.811C63.9381 214.924 63.628 214.98 63.2752 214.98C62.9811 214.98 62.7165 214.929 62.4812 214.827C62.246 214.72 62.0455 214.579 61.8797 214.402C61.7193 214.226 61.5937 214.017 61.5028 213.777C61.4173 213.536 61.3745 213.279 61.3745 213.007C61.3745 212.718 61.4226 212.453 61.5188 212.213C61.6151 211.967 61.7487 211.758 61.9198 211.587C62.0909 211.411 62.2941 211.275 62.5293 211.178C62.7646 211.082 63.0212 211.034 63.2992 211.034C63.5612 211.034 63.8018 211.079 64.021 211.17C64.2402 211.256 64.4273 211.384 64.5824 211.555C64.7428 211.721 64.8657 211.927 64.9513 212.173C65.0368 212.413 65.0796 212.689 65.0796 212.999V213.199H62.0481C62.0588 213.36 62.0963 213.515 62.1604 213.664C62.2299 213.809 62.3181 213.937 62.4251 214.049C62.532 214.156 62.6576 214.242 62.802 214.306C62.9464 214.37 63.1041 214.402 63.2752 214.402C63.5478 214.402 63.7777 214.354 63.9649 214.258C64.152 214.162 64.3204 214.02 64.4701 213.833L64.9433 214.202ZM64.4059 212.67C64.3952 212.349 64.291 212.093 64.0932 211.9C63.8954 211.708 63.6227 211.611 63.2752 211.611C62.9276 211.611 62.6469 211.708 62.4331 211.9C62.2192 212.093 62.0909 212.349 62.0481 212.67H64.4059ZM67.0177 212.862L65.6704 211.13H66.4884L67.4828 212.478L68.4211 211.13H69.183L67.8918 212.862L69.4396 214.883H68.6136L67.4267 213.263L66.2558 214.883H65.4779L67.0177 212.862ZM70.009 211.611C70.2015 211.414 70.4287 211.269 70.6907 211.178C70.958 211.082 71.228 211.034 71.5007 211.034C72.0567 211.034 72.4577 211.165 72.7037 211.427C72.9496 211.689 73.0726 212.087 73.0726 212.622V214.234C73.0726 214.341 73.0779 214.453 73.0886 214.571C73.0993 214.683 73.1127 214.787 73.1287 214.883H72.5272C72.5058 214.798 72.4925 214.704 72.4871 214.603C72.4871 214.496 72.4871 214.402 72.4871 214.322H72.4711C72.3481 214.515 72.1824 214.672 71.9739 214.795C71.7707 214.918 71.5248 214.98 71.236 214.98C71.0436 214.98 70.8618 214.956 70.6907 214.907C70.525 214.859 70.3779 214.79 70.2496 214.699C70.1267 214.603 70.0277 214.485 69.9529 214.346C69.878 214.207 69.8406 214.047 69.8406 213.865C69.8406 213.555 69.9208 213.312 70.0812 213.135C70.2416 212.959 70.4394 212.828 70.6747 212.742C70.9153 212.657 71.1719 212.603 71.4446 212.582C71.7226 212.56 71.9765 212.55 72.2064 212.55H72.447V212.437C72.447 212.165 72.3642 211.959 72.1984 211.82C72.038 211.681 71.8108 211.611 71.5167 211.611C71.3136 211.611 71.1131 211.646 70.9153 211.716C70.7228 211.78 70.5517 211.881 70.402 212.02L70.009 211.611ZM71.8215 213.079C71.4205 213.079 71.1024 213.135 70.8671 213.247C70.6319 213.36 70.5143 213.544 70.5143 213.801C70.5143 214.036 70.5918 214.204 70.7468 214.306C70.9072 214.402 71.1051 214.45 71.3403 214.45C71.5221 214.45 71.6798 214.421 71.8135 214.362C71.9525 214.298 72.0674 214.215 72.1583 214.114C72.2492 214.012 72.3187 213.894 72.3668 213.761C72.4149 213.622 72.4417 213.475 72.447 213.32V213.079H71.8215ZM74.2158 212.02C74.2158 211.849 74.2105 211.689 74.1998 211.539C74.1891 211.389 74.1837 211.253 74.1837 211.13H74.7772C74.7772 211.232 74.7799 211.333 74.7852 211.435C74.7906 211.537 74.7932 211.641 74.7932 211.748H74.8093C74.852 211.657 74.9109 211.569 74.9857 211.483C75.0659 211.398 75.1595 211.323 75.2664 211.259C75.3733 211.189 75.4936 211.136 75.6273 211.098C75.7609 211.055 75.9053 211.034 76.0604 211.034C76.2635 211.034 76.4319 211.061 76.5656 211.114C76.7046 211.162 76.8196 211.224 76.9104 211.299C77.0013 211.368 77.0708 211.446 77.119 211.531C77.1724 211.611 77.2152 211.684 77.2473 211.748C77.3863 211.523 77.5467 211.349 77.7285 211.226C77.9102 211.098 78.1455 211.034 78.4342 211.034C78.7015 211.034 78.9261 211.071 79.1078 211.146C79.2896 211.216 79.4367 211.32 79.5489 211.459C79.6612 211.593 79.7414 211.758 79.7895 211.956C79.8376 212.149 79.8617 212.365 79.8617 212.606V214.883H79.2362V212.638C79.2362 212.51 79.2228 212.384 79.1961 212.261C79.1693 212.138 79.1212 212.028 79.0517 211.932C78.9822 211.836 78.8886 211.758 78.771 211.7C78.6534 211.641 78.5037 211.611 78.3219 211.611C78.1882 211.611 78.0626 211.638 77.945 211.692C77.8274 211.745 77.7231 211.82 77.6322 211.916C77.5467 212.012 77.4772 212.13 77.4237 212.269C77.3756 212.403 77.3515 212.552 77.3515 212.718V214.883H76.726V212.758C76.726 212.341 76.6698 212.047 76.5576 211.876C76.4453 211.7 76.2608 211.611 76.0042 211.611C75.801 211.611 75.6246 211.646 75.4749 211.716C75.3306 211.785 75.2103 211.884 75.114 212.012C75.0231 212.141 74.9536 212.293 74.9055 212.469C74.8627 212.646 74.8414 212.841 74.8414 213.055V214.883H74.2158V212.02ZM81.013 211.13H81.6386V211.676H81.6546C81.8257 211.472 82.0235 211.315 82.2481 211.202C82.478 211.09 82.7292 211.034 83.0019 211.034C83.296 211.034 83.5633 211.085 83.8039 211.186C84.0498 211.283 84.2583 211.419 84.4294 211.595C84.6005 211.772 84.7342 211.98 84.8304 212.221C84.9267 212.461 84.9748 212.723 84.9748 213.007C84.9748 213.29 84.9267 213.552 84.8304 213.793C84.7342 214.033 84.6005 214.242 84.4294 214.418C84.2637 214.595 84.0659 214.734 83.836 214.835C83.6061 214.932 83.3601 214.98 83.0982 214.98C82.7613 214.98 82.4646 214.907 82.208 214.763C81.9567 214.613 81.7722 214.432 81.6546 214.218H81.6386V216.712H81.013V211.13ZM81.6386 213.007C81.6386 213.205 81.668 213.389 81.7268 213.56C81.7909 213.726 81.8818 213.873 81.9995 214.001C82.1171 214.124 82.2561 214.223 82.4165 214.298C82.5822 214.367 82.7667 214.402 82.9698 214.402C83.173 214.402 83.3548 214.367 83.5152 214.298C83.6809 214.223 83.8226 214.124 83.9402 214.001C84.0579 213.873 84.1461 213.726 84.2049 213.56C84.269 213.389 84.3011 213.205 84.3011 213.007C84.3011 212.809 84.269 212.627 84.2049 212.461C84.1461 212.29 84.0579 212.143 83.9402 212.02C83.8226 211.892 83.6809 211.793 83.5152 211.724C83.3548 211.649 83.173 211.611 82.9698 211.611C82.7667 211.611 82.5822 211.649 82.4165 211.724C82.2561 211.793 82.1171 211.892 81.9995 212.02C81.8818 212.143 81.7909 212.29 81.7268 212.461C81.668 212.627 81.6386 212.809 81.6386 213.007ZM86.0039 208.821H86.6295V214.883H86.0039V208.821ZM91.2266 214.202C91.0021 214.49 90.7562 214.694 90.4888 214.811C90.2215 214.924 89.9114 214.98 89.5585 214.98C89.2645 214.98 88.9998 214.929 88.7646 214.827C88.5293 214.72 88.3289 214.579 88.1631 214.402C88.0027 214.226 87.8771 214.017 87.7862 213.777C87.7006 213.536 87.6579 213.279 87.6579 213.007C87.6579 212.718 87.706 212.453 87.8022 212.213C87.8985 211.967 88.0321 211.758 88.2032 211.587C88.3743 211.411 88.5775 211.275 88.8127 211.178C89.048 211.082 89.3046 211.034 89.5826 211.034C89.8446 211.034 90.0852 211.079 90.3044 211.17C90.5236 211.256 90.7107 211.384 90.8658 211.555C91.0262 211.721 91.1491 211.927 91.2347 212.173C91.3202 212.413 91.363 212.689 91.363 212.999V213.199H88.3315C88.3422 213.36 88.3796 213.515 88.4438 213.664C88.5133 213.809 88.6015 213.937 88.7085 214.049C88.8154 214.156 88.941 214.242 89.0854 214.306C89.2297 214.37 89.3875 214.402 89.5585 214.402C89.8312 214.402 90.0611 214.354 90.2482 214.258C90.4354 214.162 90.6038 214.02 90.7535 213.833L91.2266 214.202ZM90.6893 212.67C90.6786 212.349 90.5744 212.093 90.3766 211.9C90.1787 211.708 89.9061 211.611 89.5585 211.611C89.211 211.611 88.9303 211.708 88.7165 211.9C88.5026 212.093 88.3743 212.349 88.3315 212.67H90.6893ZM93.8384 212.534C93.8384 212.758 93.9025 212.943 94.0309 213.087C94.1645 213.231 94.3329 213.304 94.5361 213.304C94.7125 213.304 94.8756 213.247 95.0253 213.135C95.175 213.018 95.306 212.873 95.4183 212.702C95.5305 212.531 95.6188 212.347 95.6829 212.149C95.7471 211.951 95.7792 211.769 95.7792 211.603C95.7792 211.502 95.7604 211.406 95.723 211.315C95.6856 211.224 95.6375 211.144 95.5787 211.074C95.5199 211.005 95.4503 210.951 95.3701 210.914C95.2953 210.871 95.2151 210.85 95.1296 210.85C94.9424 210.85 94.7687 210.906 94.6083 211.018C94.4532 211.125 94.3169 211.264 94.1993 211.435C94.087 211.601 93.9988 211.782 93.9346 211.98C93.8705 212.173 93.8384 212.357 93.8384 212.534ZM96.0278 212.742C96.0064 212.806 95.9877 212.876 95.9716 212.951C95.9609 213.02 95.9556 213.084 95.9556 213.143C95.9556 213.25 96.0197 213.304 96.1481 213.304C96.2764 213.304 96.4074 213.255 96.541 213.159C96.6747 213.058 96.795 212.927 96.9019 212.766C97.0088 212.6 97.0971 212.413 97.1666 212.205C97.2361 211.996 97.2708 211.78 97.2708 211.555C97.2708 211.24 97.2093 210.956 97.0864 210.705C96.9634 210.449 96.8003 210.232 96.5972 210.056C96.394 209.874 96.1614 209.735 95.8995 209.639C95.6375 209.542 95.3675 209.494 95.0895 209.494C94.7419 209.494 94.4185 209.564 94.1191 209.703C93.8197 209.836 93.5577 210.021 93.3331 210.256C93.1139 210.486 92.9402 210.756 92.8119 211.066C92.6835 211.376 92.6194 211.702 92.6194 212.044C92.6194 212.403 92.6862 212.737 92.8199 213.047C92.9535 213.357 93.1326 213.627 93.3572 213.857C93.5818 214.087 93.8437 214.269 94.1431 214.402C94.4425 214.531 94.758 214.595 95.0895 214.595C95.4904 214.595 95.8727 214.506 96.2363 214.33C96.5998 214.154 96.8912 213.918 97.1104 213.624H97.6157C97.4874 213.844 97.3323 214.041 97.1505 214.218C96.9687 214.389 96.7683 214.536 96.549 214.659C96.3298 214.776 96.0973 214.867 95.8513 214.932C95.6054 214.996 95.3514 215.028 95.0895 215.028C94.6671 215.028 94.2741 214.95 93.9106 214.795C93.547 214.64 93.2289 214.429 92.9562 214.162C92.6889 213.889 92.4777 213.574 92.3227 213.215C92.1676 212.852 92.0901 212.461 92.0901 212.044C92.0901 211.627 92.1676 211.237 92.3227 210.874C92.483 210.51 92.6996 210.195 92.9723 209.927C93.2449 209.66 93.563 209.449 93.9266 209.294C94.2902 209.139 94.6778 209.061 95.0895 209.061C95.4584 209.061 95.8059 209.123 96.132 209.246C96.4582 209.363 96.7442 209.532 96.9901 209.751C97.2414 209.965 97.4392 210.224 97.5836 210.529C97.7279 210.828 97.8001 211.157 97.8001 211.515C97.8001 211.863 97.736 212.178 97.6077 212.461C97.4847 212.745 97.3296 212.988 97.1425 213.191C96.9554 213.394 96.7522 213.552 96.533 213.664C96.3138 213.777 96.1106 213.833 95.9235 213.833C95.7845 213.833 95.6669 213.79 95.5706 213.705C95.4744 213.619 95.4209 213.485 95.4102 213.304H95.3942C95.2712 213.448 95.1322 213.574 94.9772 213.68C94.8221 213.782 94.627 213.833 94.3917 213.833C94.2207 213.833 94.0656 213.801 93.9266 213.737C93.7876 213.672 93.6673 213.584 93.5657 213.472C93.4695 213.36 93.3946 213.229 93.3412 213.079C93.2877 212.929 93.261 212.766 93.261 212.59C93.261 212.312 93.3037 212.036 93.3893 211.764C93.4802 211.491 93.6058 211.248 93.7662 211.034C93.9319 210.82 94.1298 210.649 94.3597 210.521C94.5896 210.387 94.8462 210.32 95.1296 210.32C95.3167 210.32 95.4878 210.371 95.6428 210.473C95.8032 210.569 95.9289 210.737 96.0197 210.978H96.0358L96.1801 210.473H96.7014L96.0278 212.742ZM102.49 214.715C102.49 215.399 102.314 215.918 101.961 216.271C101.613 216.629 101.108 216.808 100.445 216.808C100.076 216.808 99.742 216.755 99.4426 216.648C99.1485 216.541 98.8679 216.356 98.6005 216.094L99.0496 215.581C99.2475 215.795 99.456 215.955 99.6752 216.062C99.8997 216.175 100.156 216.231 100.445 216.231C100.723 216.231 100.953 216.188 101.135 216.102C101.322 216.022 101.469 215.91 101.576 215.766C101.683 215.627 101.758 215.466 101.8 215.284C101.843 215.103 101.865 214.913 101.865 214.715V214.234H101.849C101.699 214.474 101.504 214.651 101.263 214.763C101.022 214.875 100.777 214.932 100.525 214.932C100.231 214.932 99.9612 214.883 99.7153 214.787C99.4693 214.691 99.2581 214.557 99.0817 214.386C98.9053 214.215 98.7689 214.012 98.6727 213.777C98.5765 213.541 98.5284 213.285 98.5284 213.007C98.5284 212.702 98.5765 212.427 98.6727 212.181C98.7689 211.935 98.9026 211.729 99.0737 211.563C99.2501 211.392 99.4613 211.261 99.7073 211.17C99.9532 211.079 100.226 211.034 100.525 211.034C100.654 211.034 100.782 211.05 100.91 211.082C101.039 211.109 101.161 211.154 101.279 211.218C101.402 211.277 101.512 211.355 101.608 211.451C101.704 211.542 101.784 211.649 101.849 211.772H101.865V211.13H102.49V214.715ZM99.202 213.007C99.202 213.199 99.2368 213.378 99.3063 213.544C99.3758 213.705 99.4693 213.846 99.587 213.969C99.7099 214.087 99.8516 214.18 100.012 214.25C100.172 214.319 100.343 214.354 100.525 214.354C100.739 214.354 100.929 214.317 101.095 214.242C101.26 214.167 101.399 214.068 101.512 213.945C101.629 213.817 101.718 213.672 101.776 213.512C101.835 213.346 101.865 213.173 101.865 212.991C101.865 212.788 101.832 212.603 101.768 212.437C101.704 212.266 101.613 212.119 101.496 211.996C101.378 211.873 101.236 211.78 101.071 211.716C100.905 211.646 100.723 211.611 100.525 211.611C100.327 211.611 100.146 211.649 99.9799 211.724C99.8195 211.793 99.6805 211.892 99.5629 212.02C99.4506 212.143 99.3624 212.29 99.2982 212.461C99.2341 212.627 99.202 212.809 99.202 213.007ZM103.648 212.02C103.648 211.849 103.642 211.689 103.632 211.539C103.621 211.389 103.615 211.253 103.615 211.13H104.209C104.209 211.232 104.212 211.333 104.217 211.435C104.222 211.537 104.225 211.641 104.225 211.748H104.241C104.284 211.657 104.343 211.569 104.417 211.483C104.498 211.398 104.591 211.323 104.698 211.259C104.805 211.189 104.925 211.136 105.059 211.098C105.193 211.055 105.337 211.034 105.492 211.034C105.695 211.034 105.864 211.061 105.997 211.114C106.136 211.162 106.251 211.224 106.342 211.299C106.433 211.368 106.503 211.446 106.551 211.531C106.604 211.611 106.647 211.684 106.679 211.748C106.818 211.523 106.978 211.349 107.16 211.226C107.342 211.098 107.577 211.034 107.866 211.034C108.133 211.034 108.358 211.071 108.54 211.146C108.721 211.216 108.868 211.32 108.981 211.459C109.093 211.593 109.173 211.758 109.221 211.956C109.269 212.149 109.293 212.365 109.293 212.606V214.883H108.668V212.638C108.668 212.51 108.655 212.384 108.628 212.261C108.601 212.138 108.553 212.028 108.483 211.932C108.414 211.836 108.32 211.758 108.203 211.7C108.085 211.641 107.935 211.611 107.754 211.611C107.62 211.611 107.494 211.638 107.377 211.692C107.259 211.745 107.155 211.82 107.064 211.916C106.978 212.012 106.909 212.13 106.855 212.269C106.807 212.403 106.783 212.552 106.783 212.718V214.883H106.158V212.758C106.158 212.341 106.102 212.047 105.989 211.876C105.877 211.7 105.693 211.611 105.436 211.611C105.233 211.611 105.056 211.646 104.907 211.716C104.762 211.785 104.642 211.884 104.546 212.012C104.455 212.141 104.385 212.293 104.337 212.469C104.294 212.646 104.273 212.841 104.273 213.055V214.883H103.648V212.02ZM110.429 211.611C110.621 211.414 110.848 211.269 111.11 211.178C111.378 211.082 111.648 211.034 111.92 211.034C112.476 211.034 112.877 211.165 113.123 211.427C113.369 211.689 113.492 212.087 113.492 212.622V214.234C113.492 214.341 113.498 214.453 113.508 214.571C113.519 214.683 113.532 214.787 113.548 214.883H112.947C112.926 214.798 112.912 214.704 112.907 214.603C112.907 214.496 112.907 214.402 112.907 214.322H112.891C112.768 214.515 112.602 214.672 112.394 214.795C112.19 214.918 111.944 214.98 111.656 214.98C111.463 214.98 111.282 214.956 111.11 214.907C110.945 214.859 110.798 214.79 110.669 214.699C110.546 214.603 110.447 214.485 110.373 214.346C110.298 214.207 110.26 214.047 110.26 213.865C110.26 213.555 110.341 213.312 110.501 213.135C110.661 212.959 110.859 212.828 111.094 212.742C111.335 212.657 111.592 212.603 111.864 212.582C112.142 212.56 112.396 212.55 112.626 212.55H112.867V212.437C112.867 212.165 112.784 211.959 112.618 211.82C112.458 211.681 112.231 211.611 111.936 211.611C111.733 211.611 111.533 211.646 111.335 211.716C111.143 211.78 110.971 211.881 110.822 212.02L110.429 211.611ZM112.241 213.079C111.84 213.079 111.522 213.135 111.287 213.247C111.052 213.36 110.934 213.544 110.934 213.801C110.934 214.036 111.012 214.204 111.167 214.306C111.327 214.402 111.525 214.45 111.76 214.45C111.942 214.45 112.1 214.421 112.233 214.362C112.372 214.298 112.487 214.215 112.578 214.114C112.669 214.012 112.738 213.894 112.787 213.761C112.835 213.622 112.861 213.475 112.867 213.32V213.079H112.241ZM114.692 211.13H115.317V214.883H114.692V211.13ZM114.547 209.663C114.547 209.54 114.59 209.433 114.676 209.342C114.767 209.251 114.876 209.205 115.004 209.205C115.133 209.205 115.24 209.251 115.325 209.342C115.416 209.433 115.462 209.54 115.462 209.663C115.462 209.796 115.419 209.906 115.333 209.991C115.248 210.077 115.138 210.12 115.004 210.12C114.871 210.12 114.761 210.077 114.676 209.991C114.59 209.906 114.547 209.796 114.547 209.663ZM116.618 208.821H117.244V214.883H116.618V208.821ZM119.01 213.969C119.144 213.969 119.256 214.017 119.347 214.114C119.443 214.204 119.491 214.317 119.491 214.45C119.491 214.584 119.44 214.699 119.339 214.795C119.243 214.886 119.133 214.932 119.01 214.932C118.887 214.932 118.775 214.886 118.673 214.795C118.577 214.699 118.529 214.584 118.529 214.45C118.529 214.317 118.574 214.204 118.665 214.114C118.761 214.017 118.876 213.969 119.01 213.969ZM123.391 212.069C123.258 211.908 123.113 211.793 122.958 211.724C122.803 211.649 122.632 211.611 122.445 211.611C122.237 211.611 122.052 211.649 121.892 211.724C121.731 211.793 121.598 211.892 121.491 212.02C121.389 212.149 121.312 212.298 121.258 212.469C121.205 212.635 121.178 212.814 121.178 213.007C121.178 213.199 121.207 213.381 121.266 213.552C121.33 213.718 121.416 213.865 121.523 213.993C121.635 214.122 121.769 214.223 121.924 214.298C122.079 214.367 122.253 214.402 122.445 214.402C122.857 214.402 123.175 214.247 123.399 213.937L123.865 214.378C123.683 214.587 123.469 214.739 123.223 214.835C122.977 214.932 122.718 214.98 122.445 214.98C122.156 214.98 121.892 214.932 121.651 214.835C121.411 214.739 121.205 214.603 121.034 214.426C120.868 214.25 120.737 214.041 120.641 213.801C120.55 213.56 120.504 213.296 120.504 213.007C120.504 212.723 120.55 212.461 120.641 212.221C120.737 211.98 120.871 211.772 121.042 211.595C121.213 211.419 121.416 211.283 121.651 211.186C121.892 211.085 122.156 211.034 122.445 211.034C122.723 211.034 122.985 211.082 123.231 211.178C123.482 211.275 123.701 211.424 123.889 211.627L123.391 212.069ZM124.373 213.007C124.373 212.713 124.424 212.445 124.526 212.205C124.627 211.964 124.766 211.758 124.943 211.587C125.119 211.411 125.33 211.275 125.576 211.178C125.822 211.082 126.089 211.034 126.378 211.034C126.667 211.034 126.934 211.082 127.18 211.178C127.426 211.275 127.637 211.411 127.814 211.587C127.99 211.758 128.129 211.964 128.231 212.205C128.332 212.445 128.383 212.713 128.383 213.007C128.383 213.301 128.332 213.568 128.231 213.809C128.129 214.049 127.99 214.258 127.814 214.434C127.637 214.605 127.426 214.739 127.18 214.835C126.934 214.932 126.667 214.98 126.378 214.98C126.089 214.98 125.822 214.932 125.576 214.835C125.33 214.739 125.119 214.605 124.943 214.434C124.766 214.258 124.627 214.049 124.526 213.809C124.424 213.568 124.373 213.301 124.373 213.007ZM125.047 213.007C125.047 213.205 125.076 213.389 125.135 213.56C125.199 213.726 125.29 213.873 125.408 214.001C125.525 214.124 125.664 214.223 125.825 214.298C125.99 214.367 126.175 214.402 126.378 214.402C126.581 214.402 126.763 214.367 126.923 214.298C127.089 214.223 127.231 214.124 127.348 214.001C127.466 213.873 127.554 213.726 127.613 213.56C127.677 213.389 127.709 213.205 127.709 213.007C127.709 212.809 127.677 212.627 127.613 212.461C127.554 212.29 127.466 212.143 127.348 212.02C127.231 211.892 127.089 211.793 126.923 211.724C126.763 211.649 126.581 211.611 126.378 211.611C126.175 211.611 125.99 211.649 125.825 211.724C125.664 211.793 125.525 211.892 125.408 212.02C125.29 212.143 125.199 212.29 125.135 212.461C125.076 212.627 125.047 212.809 125.047 213.007ZM129.351 212.02C129.351 211.849 129.346 211.689 129.335 211.539C129.325 211.389 129.319 211.253 129.319 211.13H129.913C129.913 211.232 129.915 211.333 129.921 211.435C129.926 211.537 129.929 211.641 129.929 211.748H129.945C129.988 211.657 130.046 211.569 130.121 211.483C130.201 211.398 130.295 211.323 130.402 211.259C130.509 211.189 130.629 211.136 130.763 211.098C130.897 211.055 131.041 211.034 131.196 211.034C131.399 211.034 131.568 211.061 131.701 211.114C131.84 211.162 131.955 211.224 132.046 211.299C132.137 211.368 132.206 211.446 132.255 211.531C132.308 211.611 132.351 211.684 132.383 211.748C132.522 211.523 132.682 211.349 132.864 211.226C133.046 211.098 133.281 211.034 133.57 211.034C133.837 211.034 134.062 211.071 134.243 211.146C134.425 211.216 134.572 211.32 134.685 211.459C134.797 211.593 134.877 211.758 134.925 211.956C134.973 212.149 134.997 212.365 134.997 212.606V214.883H134.372V212.638C134.372 212.51 134.358 212.384 134.332 212.261C134.305 212.138 134.257 212.028 134.187 211.932C134.118 211.836 134.024 211.758 133.907 211.7C133.789 211.641 133.639 211.611 133.457 211.611C133.324 211.611 133.198 211.638 133.081 211.692C132.963 211.745 132.859 211.82 132.768 211.916C132.682 212.012 132.613 212.13 132.559 212.269C132.511 212.403 132.487 212.552 132.487 212.718V214.883H131.862V212.758C131.862 212.341 131.805 212.047 131.693 211.876C131.581 211.7 131.396 211.611 131.14 211.611C130.937 211.611 130.76 211.646 130.61 211.716C130.466 211.785 130.346 211.884 130.25 212.012C130.159 212.141 130.089 212.293 130.041 212.469C129.998 212.646 129.977 212.841 129.977 213.055V214.883H129.351V212.02Z" fill="#DADADA"/>
</g>
</g>
<rect x="0.8" y="0.3" width="269.4" height="213.4" rx="15.7" stroke="#C5DBAB" stroke-width="0.6"/>
<defs>
<filter id="filter0_d_3940_11118" x="113.487" y="49.0436" width="32.8146" height="7.29733" filterUnits="userSpaceOnUse" color-interpolation-filters="sRGB">
<feFlood flood-opacity="0" result="BackgroundImageFix"/>
<feColorMatrix in="SourceAlpha" type="matrix" values="0 0 0 0 0 0 0 0 0 0 0 0 0 0 0 0 0 0 127 0" result="hardAlpha"/>
<feOffset dy="0.732403"/>
<feGaussianBlur stdDeviation="0.366202"/>
<feComposite in2="hardAlpha" operator="out"/>
<feColorMatrix type="matrix" values="0 0 0 0 0 0 0 0 0 0 0 0 0 0 0 0 0 0 0.04 0"/>
<feBlend mode="normal" in2="BackgroundImageFix" result="effect1_dropShadow_3940_11118"/>
<feBlend mode="normal" in="SourceGraphic" in2="effect1_dropShadow_3940_11118" result="shape"/>
</filter>
<filter id="filter1_d_3940_11118" x="150.669" y="49.0436" width="7.29733" height="7.29733" filterUnits="userSpaceOnUse" color-interpolation-filters="sRGB">
<feFlood flood-opacity="0" result="BackgroundImageFix"/>
<feColorMatrix in="SourceAlpha" type="matrix" values="0 0 0 0 0 0 0 0 0 0 0 0 0 0 0 0 0 0 127 0" result="hardAlpha"/>
<feOffset dy="0.732403"/>
<feGaussianBlur stdDeviation="0.366202"/>
<feComposite in2="hardAlpha" operator="out"/>
<feColorMatrix type="matrix" values="0 0 0 0 0 0 0 0 0 0 0 0 0 0 0 0 0 0 0.04 0"/>
<feBlend mode="normal" in2="BackgroundImageFix" result="effect1_dropShadow_3940_11118"/>
<feBlend mode="normal" in="SourceGraphic" in2="effect1_dropShadow_3940_11118" result="shape"/>
</filter>
<clipPath id="clip0_3940_11118">
<rect x="0.5" width="270" height="214" rx="16" fill="white"/>
</clipPath>
<clipPath id="clip1_3940_11118">
<path d="M43.5 59.3301C43.5 46.4452 53.9452 36 66.8301 36H204.624C217.508 36 227.954 46.4452 227.954 59.3301V225H43.5V59.3301Z" fill="white"/>
</clipPath>
</defs>
</svg>
