<svg width="127" height="30" viewBox="0 0 127 30" fill="none" xmlns="http://www.w3.org/2000/svg">
<g filter="url(#filter0_ii_3940_11301)">
<rect width="127" height="30" rx="15" fill="#AFE274" fill-opacity="0.2"/>
<path d="M19.289 15.6315L22.7782 10.1485C23.0467 9.72652 23.7 9.91675 23.7 10.417V14.2C23.7 14.2552 23.7448 14.3 23.8 14.3H26.2397C26.6442 14.3 26.8812 14.7553 26.6493 15.0867L23.2096 20.0005C22.9293 20.401 22.3 20.2026 22.3 19.7138V16.5C22.3 16.4447 22.2552 16.4 22.2 16.4H19.7108C19.3163 16.4 19.0772 15.9644 19.289 15.6315Z" stroke="#3B3A3A"/>
<path d="M43.23 18H42.51V11.58H40.14V10.92H45.6V11.58H43.23V18ZM47.4222 17.34H51.2122V18H46.7022V10.92H51.0922V11.58H47.4222V13.99H50.8522V14.65H47.4222V17.34ZM55.9799 12.09C55.6666 11.63 55.2099 11.4 54.6099 11.4C54.4233 11.4 54.2399 11.4267 54.0599 11.48C53.8799 11.5267 53.7166 11.6033 53.5699 11.71C53.4299 11.81 53.3166 11.9433 53.2299 12.11C53.1433 12.27 53.0999 12.46 53.0999 12.68C53.0999 13 53.1899 13.25 53.3699 13.43C53.5499 13.6033 53.7733 13.7467 54.0399 13.86C54.3066 13.9733 54.5966 14.0767 54.9099 14.17C55.2299 14.2567 55.5233 14.3767 55.7899 14.53C56.0566 14.6767 56.2799 14.8733 56.4599 15.12C56.6399 15.3667 56.7299 15.7033 56.7299 16.13C56.7299 16.45 56.6599 16.74 56.5199 17C56.3866 17.2533 56.2066 17.4667 55.9799 17.64C55.7599 17.8133 55.5099 17.9467 55.2299 18.04C54.9566 18.1333 54.6799 18.18 54.3999 18.18C53.9666 18.18 53.5533 18.1 53.1599 17.94C52.7733 17.7733 52.4433 17.5033 52.1699 17.13L52.8199 16.66C52.9733 16.92 53.1866 17.13 53.4599 17.29C53.7333 17.4433 54.0566 17.52 54.4299 17.52C54.6099 17.52 54.7899 17.4933 54.9699 17.44C55.1499 17.38 55.3099 17.2967 55.4499 17.19C55.5966 17.0767 55.7166 16.94 55.8099 16.78C55.9033 16.62 55.9499 16.4367 55.9499 16.23C55.9499 15.9833 55.8966 15.78 55.7899 15.62C55.6899 15.4533 55.5533 15.3167 55.3799 15.21C55.2133 15.0967 55.0199 15.0033 54.7999 14.93C54.5866 14.8567 54.3633 14.7833 54.1299 14.71C53.9033 14.6367 53.6799 14.5533 53.4599 14.46C53.2466 14.3667 53.0533 14.25 52.8799 14.11C52.7133 13.9633 52.5766 13.7833 52.4699 13.57C52.3699 13.35 52.3199 13.0767 52.3199 12.75C52.3199 12.41 52.3833 12.1133 52.5099 11.86C52.6433 11.6067 52.8166 11.3967 53.0299 11.23C53.2499 11.0633 53.4966 10.94 53.7699 10.86C54.0433 10.78 54.3233 10.74 54.6099 10.74C55.0099 10.74 55.3733 10.8033 55.6999 10.93C56.0266 11.0567 56.3299 11.28 56.6099 11.6L55.9799 12.09ZM60.4566 18H59.7366V11.58H57.3666V10.92H62.8266V11.58H60.4566V18ZM64.6488 18H63.9288V10.92H64.6488V18ZM70.0555 16.68L72.4455 10.92H73.5455V18H72.8255V11.88H72.8055L70.2455 18H69.8655L67.3055 11.88H67.2855V18H66.5655V10.92H67.6655L70.0555 16.68ZM81.582 14.46C81.582 14.0533 81.5153 13.6667 81.382 13.3C81.2486 12.9267 81.0553 12.6 80.802 12.32C80.5553 12.04 80.252 11.8167 79.892 11.65C79.532 11.4833 79.1253 11.4 78.672 11.4C78.2186 11.4 77.812 11.4833 77.452 11.65C77.092 11.8167 76.7853 12.04 76.532 12.32C76.2853 12.6 76.0953 12.9267 75.962 13.3C75.8286 13.6667 75.762 14.0533 75.762 14.46C75.762 14.8667 75.8286 15.2567 75.962 15.63C76.0953 15.9967 76.2853 16.32 76.532 16.6C76.7853 16.88 77.092 17.1033 77.452 17.27C77.812 17.4367 78.2186 17.52 78.672 17.52C79.1253 17.52 79.532 17.4367 79.892 17.27C80.252 17.1033 80.5553 16.88 80.802 16.6C81.0553 16.32 81.2486 15.9967 81.382 15.63C81.5153 15.2567 81.582 14.8667 81.582 14.46ZM82.362 14.46C82.362 15 82.2686 15.4967 82.082 15.95C81.8953 16.4033 81.6353 16.7967 81.302 17.13C80.9753 17.4567 80.5853 17.7133 80.132 17.9C79.6853 18.0867 79.1986 18.18 78.672 18.18C78.1453 18.18 77.6553 18.0867 77.202 17.9C76.7553 17.7133 76.3653 17.4567 76.032 17.13C75.7053 16.7967 75.4486 16.4033 75.262 15.95C75.0753 15.4967 74.982 15 74.982 14.46C74.982 13.92 75.0753 13.4233 75.262 12.97C75.4486 12.5167 75.7053 12.1267 76.032 11.8C76.3653 11.4667 76.7553 11.2067 77.202 11.02C77.6553 10.8333 78.1453 10.74 78.672 10.74C79.1986 10.74 79.6853 10.8333 80.132 11.02C80.5853 11.2067 80.9753 11.4667 81.302 11.8C81.6353 12.1267 81.8953 12.5167 82.082 12.97C82.2686 13.4233 82.362 13.92 82.362 14.46ZM88.9218 16.92H88.9418V10.92H89.6618V18H88.7618L84.5418 11.94H84.5218V18H83.8018V10.92H84.7018L88.9218 16.92ZM92.305 18H91.585V10.92H92.305V18ZM95.1517 15.48H98.2217L96.6917 11.76L95.1517 15.48ZM94.1017 18H93.2617L96.3417 10.92H97.0417L100.122 18H99.2817L98.5017 16.14H94.8817L94.1017 18ZM101.797 17.34H105.097V18H101.077V10.92H101.797V17.34ZM109.427 12.09C109.114 11.63 108.657 11.4 108.057 11.4C107.871 11.4 107.687 11.4267 107.507 11.48C107.327 11.5267 107.164 11.6033 107.017 11.71C106.877 11.81 106.764 11.9433 106.677 12.11C106.591 12.27 106.547 12.46 106.547 12.68C106.547 13 106.637 13.25 106.817 13.43C106.997 13.6033 107.221 13.7467 107.487 13.86C107.754 13.9733 108.044 14.0767 108.357 14.17C108.677 14.2567 108.971 14.3767 109.237 14.53C109.504 14.6767 109.727 14.8733 109.907 15.12C110.087 15.3667 110.177 15.7033 110.177 16.13C110.177 16.45 110.107 16.74 109.967 17C109.834 17.2533 109.654 17.4667 109.427 17.64C109.207 17.8133 108.957 17.9467 108.677 18.04C108.404 18.1333 108.127 18.18 107.847 18.18C107.414 18.18 107.001 18.1 106.607 17.94C106.221 17.7733 105.891 17.5033 105.617 17.13L106.267 16.66C106.421 16.92 106.634 17.13 106.907 17.29C107.181 17.4433 107.504 17.52 107.877 17.52C108.057 17.52 108.237 17.4933 108.417 17.44C108.597 17.38 108.757 17.2967 108.897 17.19C109.044 17.0767 109.164 16.94 109.257 16.78C109.351 16.62 109.397 16.4367 109.397 16.23C109.397 15.9833 109.344 15.78 109.237 15.62C109.137 15.4533 109.001 15.3167 108.827 15.21C108.661 15.0967 108.467 15.0033 108.247 14.93C108.034 14.8567 107.811 14.7833 107.577 14.71C107.351 14.6367 107.127 14.5533 106.907 14.46C106.694 14.3667 106.501 14.25 106.327 14.11C106.161 13.9633 106.024 13.7833 105.917 13.57C105.817 13.35 105.767 13.0767 105.767 12.75C105.767 12.41 105.831 12.1133 105.957 11.86C106.091 11.6067 106.264 11.3967 106.477 11.23C106.697 11.0633 106.944 10.94 107.217 10.86C107.491 10.78 107.771 10.74 108.057 10.74C108.457 10.74 108.821 10.8033 109.147 10.93C109.474 11.0567 109.777 11.28 110.057 11.6L109.427 12.09Z" fill="#2F2F2F"/>
</g>
<defs>
<filter id="filter0_ii_3940_11301" x="0" y="-4" width="127" height="37" filterUnits="userSpaceOnUse" color-interpolation-filters="sRGB">
<feFlood flood-opacity="0" result="BackgroundImageFix"/>
<feBlend mode="normal" in="SourceGraphic" in2="BackgroundImageFix" result="shape"/>
<feColorMatrix in="SourceAlpha" type="matrix" values="0 0 0 0 0 0 0 0 0 0 0 0 0 0 0 0 0 0 127 0" result="hardAlpha"/>
<feOffset dy="-4"/>
<feGaussianBlur stdDeviation="2"/>
<feComposite in2="hardAlpha" operator="arithmetic" k2="-1" k3="1"/>
<feColorMatrix type="matrix" values="0 0 0 0 0.930339 0 0 0 0 0.97113 0 0 0 0 0.763097 0 0 0 0.1 0"/>
<feBlend mode="normal" in2="shape" result="effect1_innerShadow_3940_11301"/>
<feColorMatrix in="SourceAlpha" type="matrix" values="0 0 0 0 0 0 0 0 0 0 0 0 0 0 0 0 0 0 127 0" result="hardAlpha"/>
<feOffset dy="3"/>
<feGaussianBlur stdDeviation="2"/>
<feComposite in2="hardAlpha" operator="arithmetic" k2="-1" k3="1"/>
<feColorMatrix type="matrix" values="0 0 0 0 0.490811 0 0 0 0 0.536249 0 0 0 0 0.304512 0 0 0 0.04 0"/>
<feBlend mode="normal" in2="effect1_innerShadow_3940_11301" result="effect2_innerShadow_3940_11301"/>
</filter>
</defs>
</svg>
