<svg width="22" height="25" viewBox="0 0 22 25" fill="none" xmlns="http://www.w3.org/2000/svg">
<path d="M20.4178 10.6592L4.10129 1.33258C3.70161 1.10461 3.24908 0.985558 2.78896 0.987324C2.32884 0.98909 1.87724 1.11162 1.47932 1.34265C1.0814 1.57368 0.751096 1.90513 0.521442 2.30384C0.291788 2.70256 0.170828 3.15458 0.170654 3.61471V22.268C0.170614 22.7284 0.291529 23.1808 0.521293 23.5798C0.751057 23.9788 1.08161 24.3105 1.47985 24.5415C1.8781 24.7726 2.33006 24.8951 2.7905 24.8966C3.25094 24.8981 3.70369 24.7786 4.10343 24.5501L20.4173 15.223C20.8196 14.9931 21.1539 14.661 21.3864 14.2602C21.6189 13.8595 21.7414 13.4044 21.7414 12.9411C21.7414 12.4778 21.6189 12.0227 21.3864 11.622C21.1539 11.2213 20.82 10.8891 20.4178 10.6592ZM13.3472 8.45393L11.1069 11.575L5.7481 4.11042L13.3472 8.45393ZM2.69402 23.2931C2.54748 23.2799 2.4055 23.2354 2.27773 23.1624C2.12092 23.0711 1.9908 22.9403 1.90037 22.7829C1.80995 22.6256 1.76236 22.4473 1.76238 22.2658V3.61471C1.76181 3.35848 1.85678 3.11124 2.02873 2.92128C2.20069 2.73132 2.43729 2.61229 2.69231 2.58743L10.1258 12.9413L2.69402 23.2931ZM5.7481 21.7722L11.1069 14.3076L13.3472 17.4283L5.7481 21.7722ZM19.6245 13.8392L14.7383 16.6333L12.0881 12.9413L14.7387 9.24937L19.6266 12.0447C19.7849 12.1351 19.9165 12.2658 20.008 12.4235C20.0995 12.5812 20.1477 12.7603 20.1477 12.9426C20.1477 13.1249 20.0995 13.304 20.008 13.4617C19.9165 13.6194 19.7849 13.7501 19.6266 13.8405L19.6245 13.8392Z" fill="#FDFDFD"/>
</svg>
